<svg width="17" height="16" viewBox="0 0 17 16" fill="none" xmlns="http://www.w3.org/2000/svg">
    <path d="M4.18361 4.27848L3.3503 4.28411C2.90828 4.2871 2.48555 4.46556 2.17511 4.78023C1.86467 5.09489 1.69195 5.51999 1.69494 5.96201L1.74565 13.4618C1.74863 13.9039 1.92709 14.3266 2.24176 14.637C2.55642 14.9475 2.98152 15.1202 3.42354 15.1172L10.9234 15.0665C11.3654 15.0635 11.7881 14.885 12.0986 14.5704C12.409 14.2557 12.5817 13.8306 12.5787 13.3886L12.5731 12.5553M11.6722 2.56114L14.189 5.04418M15.3352 3.85724C15.6612 3.52683 15.8425 3.08045 15.8394 2.6163C15.8363 2.15216 15.6489 1.70828 15.3185 1.3823C14.988 1.05632 14.5417 0.87495 14.0775 0.878088C13.6134 0.881226 13.1695 1.06862 12.8435 1.39903L5.87841 8.43378L5.89531 10.9337L8.39526 10.9168L15.3352 3.85724Z" stroke="#F3CFD7" stroke-width="1.5" stroke-linecap="round" stroke-linejoin="round"/>
</svg>
