<svg width="116" height="116" viewBox="0 0 116 116" fill="none" xmlns="http://www.w3.org/2000/svg">
    <circle cx="57.2393" cy="36.7469" r="60.6817" stroke="#ECEFF2"/>
    <path d="M97.3036 36.7826C97.3036 59.4503 79.3106 77.8261 57.1152 77.8261C34.9197 77.8261 16.9268 59.4503 16.9268 36.7826C16.9268 14.1149 34.9197 -4.26086 57.1152 -4.26086C79.3106 -4.26086 97.3036 14.1149 97.3036 36.7826Z" fill="#E6F3D8"/>
    <mask id="mask0_2601_21940" style="mask-type:alpha" maskUnits="userSpaceOnUse" x="-4" y="-25" width="123" height="123">
        <circle cx="57.2393" cy="36.7469" r="61.1817" fill="#ECEFF2"/>
    </mask>
    <g mask="url(#mask0_2601_21940)">
        <g clip-path="url(#clip0_2601_21940)">
            <path d="M70.8313 73.4963H42.3564V107.853H70.8313V73.4963Z" fill="#808B9A"/>
            <path d="M74.0867 43.3157H46.3465C46.1973 43.3157 46.0801 43.1985 46.0801 43.0493V15.3143C46.0801 15.1652 46.1973 15.048 46.3465 15.048H74.0867C74.2359 15.048 74.3531 15.1652 74.3531 15.3143V43.0493C74.3531 43.1985 74.2359 43.3157 74.0867 43.3157ZM46.6128 42.7829H73.8204V15.5807H46.6128V42.7829Z" fill="#82C43C"/>
            <path d="M56.8894 19.7308H63.5487V25.8521H69.6701V32.5115H63.5487V38.6275H56.8894V32.5115H50.7734V25.8521H56.8894V19.7308Z" fill="#82C43C"/>
            <path d="M33.0788 39.5771C33.0788 39.5771 34.0994 48.355 31.6963 49.1066L34.6303 49.1549L35.5646 46.7967L36.1059 49.7307L46.2043 43.8075L38.8055 37.8843L33.0823 39.5771H33.0788Z" fill="#808B9A"/>
            <path d="M46.2938 42.6904L59.1849 36.2294C62.6912 34.471 66.9561 35.6329 69.0868 38.9255L85.1153 63.9871C86.5082 66.166 86.3392 68.9932 84.6947 70.9894L78.0474 79.7949L70.0315 79.688L75.0238 67.5796L69.3833 60.1532L72.9931 71.3135L41.6084 79.2709L37.116 82.7289C34.7198 84.5735 31.3617 84.508 29.0345 82.5738C27.1555 81.0085 26.3211 78.5193 26.8762 76.1403L31.8789 54.692C32.3167 52.813 33.4579 51.1719 35.068 50.11L46.2835 42.6904H46.2938Z" fill="#DCF0FF"/>
            <path d="M49.1827 48.9862L42.8389 49.7275L47.6278 75.0614L54.7577 74.0133L49.1827 48.9862Z" fill="#B3BECD"/>
            <path d="M40.4121 46.5797C41.1637 47.7864 44.1977 52.0685 48.1178 49.7896C51.9206 47.5761 51.8172 41.7943 51.6862 39.9877L46.2974 42.6907L40.4156 46.5797H40.4121Z" fill="#FFC192"/>
            <path d="M40.3054 72.6583L38.2471 106.098L46.3251 100.788L47.5939 71.6964L40.3054 72.6583Z" fill="#DCF0FF"/>
            <path d="M53.4999 71.3724L53.0068 98.3854L73.5877 99.3917C73.5877 99.3917 74.0794 73.6583 72.4486 67.9868C70.8178 62.3152 53.4964 71.3724 53.4964 71.3724H53.4999Z" fill="#DCF0FF"/>
            <path d="M42.8666 44.9556L47.6279 65.6144L45.5282 65.9591L41.5634 55.3574L42.6701 53.4508L39.3154 47.2724L42.8666 44.9556Z" fill="#96D3FF"/>
            <path d="M48.7002 41.356L50.0103 62.1561L52.641 58.8394L52.9099 49.7271L51.0791 48.6962L52.3962 39.6287L48.7002 41.356Z" fill="#96D3FF"/>
            <path fill-rule="evenodd" clip-rule="evenodd" d="M45.2293 39.3286C45.1951 38.1839 44.8544 37.0199 44.1861 35.9704C44.7791 35.5693 44.9175 34.7203 44.487 34.0643C44.0526 33.4024 43.2079 33.1886 42.6011 33.5851C42.4455 33.6868 42.3205 33.8188 42.2279 33.9702C40.1863 32.6199 37.5361 32.5099 35.4927 33.9064C32.7495 35.7813 32.1387 39.6613 34.1285 42.5728C34.2114 42.6941 34.2975 42.8118 34.3867 42.9259C34.111 43.045 33.8809 43.2535 33.7473 43.5356C33.437 44.1906 33.7645 44.9974 34.4782 45.3353C35.1919 45.6732 36.0228 45.4146 36.3331 44.7595C36.3516 44.7205 36.3678 44.6809 36.3818 44.6408C38.3576 45.7443 40.7921 45.7526 42.6984 44.4497C42.748 44.4159 42.7969 44.3813 42.8451 44.3461L45.0601 46.042L48.8285 42.7701L45.2293 39.3286Z" fill="#FFC192"/>
            <path d="M43.7979 35.4126C43.7979 35.4126 46.4181 41.5151 45.4114 44.8525L47.1215 42.6218C47.1215 42.6218 46.8939 37.2813 43.7979 35.4126Z" fill="#808B9A"/>
            <path d="M40.6876 40.4536C40.6876 40.4536 38.4673 37.9988 41.2634 36.3542C41.2634 36.3542 43.7975 38.5298 40.6876 40.4536Z" fill="white"/>
            <path d="M34.8086 43.2048C34.8086 43.2048 37.9012 44.6563 38.4666 42.136C38.4666 42.136 36.1153 40.2845 34.8086 43.2048Z" fill="white"/>
            <path d="M43.5801 44.2816C43.5215 44.2816 43.4664 44.2505 43.4319 44.1988C43.3836 44.1161 43.4078 44.0126 43.4905 43.9609C43.5112 43.9471 45.5143 42.6922 45.6833 38.4859C45.6867 38.3894 45.7729 38.3204 45.8625 38.3204C45.9591 38.3239 46.0315 38.4032 46.028 38.4997C45.8522 42.8887 43.7594 44.2023 43.6698 44.254C43.6422 44.2712 43.6112 44.2781 43.5801 44.2781V44.2816Z" fill="#808B9A"/>
            <path d="M39.6534 41.9498C39.5706 41.9498 39.4982 41.8877 39.4844 41.805L39.3396 40.881C39.3327 40.8293 39.3465 40.7776 39.381 40.7396C39.4155 40.7017 39.4637 40.681 39.5189 40.681L40.5498 40.7293C40.6463 40.7327 40.7187 40.8155 40.7153 40.9086C40.7118 41.0051 40.6291 41.081 40.536 41.0741L39.7154 41.0361L39.8257 41.7498C39.8395 41.8429 39.7775 41.9326 39.6809 41.9463C39.6706 41.9463 39.6637 41.9463 39.6534 41.9463V41.9498Z" fill="#808B9A"/>
            <path d="M40.9356 43.4116C40.8563 43.4116 40.7839 43.3565 40.7667 43.2737C40.7494 43.1806 40.808 43.091 40.9011 43.0703C41.7355 42.9048 41.7113 41.9567 41.7113 41.9153C41.7113 41.8188 41.7838 41.7395 41.8768 41.736C41.9837 41.7291 42.0527 41.8084 42.0561 41.9015C42.0734 42.3463 41.8665 43.2289 40.9701 43.4082C40.9597 43.4082 40.946 43.4082 40.9356 43.4082V43.4116Z" fill="#808B9A"/>
            <path d="M38.8045 38.4296C38.7183 38.4296 38.6425 38.3641 38.6322 38.2745C38.5494 37.4298 39.4803 36.3817 39.5217 36.3369C39.5872 36.2679 39.6941 36.261 39.7665 36.3231C39.8389 36.3851 39.8423 36.4954 39.7803 36.5678C39.7699 36.5782 38.908 37.5436 38.9769 38.24C38.9873 38.3331 38.9183 38.4193 38.8218 38.4296C38.8149 38.4296 38.8114 38.4296 38.8045 38.4296Z" fill="#808B9A"/>
            <path d="M34.8094 41.6325C34.7887 41.6325 34.768 41.6291 34.7473 41.6222C34.6577 41.5877 34.6163 41.4877 34.6508 41.3981C35.1576 40.0983 36.4884 40.1673 36.5022 40.1673C36.5987 40.1742 36.6677 40.2535 36.6642 40.35C36.6573 40.4431 36.5712 40.5155 36.4815 40.512C36.4367 40.512 35.3851 40.4638 34.9714 41.5222C34.9438 41.5912 34.8783 41.6325 34.8094 41.6325Z" fill="#808B9A"/>
            <path d="M43.0182 35.5646C43.0182 35.6611 43.0975 35.737 43.1905 35.737C43.2871 35.737 43.3629 35.6611 43.3629 35.5646L43.3598 35.19L44.1111 35.2474H44.1249C44.2145 35.2474 44.2904 35.1784 44.2973 35.0888C44.3042 34.9922 44.2352 34.9095 44.1387 34.9026L43.357 34.8429L43.3491 33.8993C43.3491 33.8028 43.2698 33.7269 43.1768 33.7269C43.0802 33.7269 43.0044 33.8028 43.0044 33.8993L43.013 34.9452C43.0084 34.959 43.0055 34.9736 43.0044 34.9888C43.0026 35.0144 43.0061 35.039 43.014 35.0615L43.0182 35.5646Z" fill="#808B9A"/>
            <path d="M35.0089 44.8424C35.0158 44.9355 35.0917 45.0044 35.1813 45.0044L35.1779 45.001H35.1917C35.2847 44.9941 35.3571 44.9148 35.3502 44.8183L35.3079 44.1988L35.4192 44.1977C35.5157 44.1977 35.5916 44.1219 35.5916 44.0253C35.5916 43.9288 35.5123 43.8564 35.4192 43.853L35.1503 43.8555C35.138 43.8533 35.1253 43.8524 35.1123 43.8529C35.1046 43.8535 35.097 43.8546 35.0896 43.8561L33.9781 43.8667C33.8815 43.8667 33.8057 43.9426 33.8057 44.0391C33.8057 44.1357 33.885 44.2115 33.9781 44.2115L34.9651 44.2021L35.0089 44.8424Z" fill="#808B9A"/>
            <mask id="mask1_2601_21940" style="mask-type:luminance" maskUnits="userSpaceOnUse" x="39" y="36" width="4" height="5">
                <path d="M40.6876 40.4536C40.6876 40.4536 38.4673 37.9988 41.2634 36.3542C41.2634 36.3542 43.7975 38.5298 40.6876 40.4536Z" fill="white"/>
            </mask>
            <g mask="url(#mask1_2601_21940)">
                <path d="M43.0906 38.2572C43.0906 39.1846 42.339 39.9397 41.4081 39.9397C40.4772 39.9397 39.7256 39.1881 39.7256 38.2572C39.7256 37.3263 40.4772 36.5747 41.4081 36.5747C42.339 36.5747 43.0906 37.3263 43.0906 38.2572Z" fill="#808B9A"/>
            </g>
            <mask id="mask2_2601_21940" style="mask-type:luminance" maskUnits="userSpaceOnUse" x="34" y="41" width="5" height="3">
                <path d="M34.8086 43.2048C34.8086 43.2048 37.9012 44.6563 38.4666 42.136C38.4666 42.136 36.1153 40.2845 34.8086 43.2048Z" fill="white"/>
            </mask>
            <g mask="url(#mask2_2601_21940)">
                <path d="M37.1389 44.3321C37.9977 44.3321 38.6938 43.636 38.6938 42.7772C38.6938 41.9185 37.9977 41.2223 37.1389 41.2223C36.2801 41.2223 35.584 41.9185 35.584 42.7772C35.584 43.636 36.2801 44.3321 37.1389 44.3321Z" fill="#808B9A"/>
            </g>
            <path d="M35.4959 33.8989C33.0101 35.5986 32.2826 38.9394 33.6479 41.7149L33.7892 41.8838C35.32 40.915 35.5752 38.2016 35.5752 38.2016C36.0199 38.7981 36.475 40.0496 36.475 40.0496C36.8784 39.398 37.0163 38.3119 37.0163 38.3119C38.2368 40.6943 38.9574 34.1988 38.9574 34.1988C42.0707 36.6881 42.2052 34.2988 42.2086 33.954C40.171 32.6163 37.5335 32.5094 35.4959 33.9023V33.8989Z" fill="#808B9A"/>
            <path d="M52.8828 53.913C52.7309 57.189 52.3891 61.4083 52.3891 61.4083V69.0933C52.3891 69.0933 47.252 70.8482 50.5032 77.2403L49.9999 77.3541C49.2793 77.5196 48.7725 78.1574 48.7725 78.8952C48.7725 79.371 49.1586 79.7572 49.6344 79.7572L74.0547 79.7813C74.0547 79.7813 74.0965 77.2447 73.6188 74.2186C74.4424 74.4304 75.3295 74.3988 76.1233 74.0926C77.5265 73.5513 78.5712 72.1756 78.7298 70.6793C78.7505 70.4724 78.7195 70.2656 78.6402 70.0725C78.342 69.3451 77.7634 69.1555 77.2589 69.2845C78.5732 67.7121 78.9358 65.34 78.0127 63.4908L76.2405 66.1593C77.3473 64.0493 77.5231 61.4739 76.7163 59.2363C76.1233 57.5952 75.0097 56.1506 73.5892 55.1369C73.2445 54.8887 72.8135 55.3024 73.0341 55.6644C74.0892 57.3883 74.5822 59.4604 74.3753 61.4739C74.1449 63.719 73.0513 65.8604 71.3917 67.384C70.8967 66.576 70.3098 65.8713 69.614 65.3319C68.4146 64.401 65.3109 57.0901 64.0994 53.913H52.8828Z" fill="#FFC542"/>
            <path d="M66.0552 79.8914H66.0586V79.888C66.1517 79.888 66.231 79.8121 66.231 79.719C66.231 79.6259 66.1586 79.5432 66.0621 79.5432L64.2899 79.4949C64.2663 79.4934 64.2434 79.4914 64.2213 79.4889C64.2021 78.3945 65.0115 78.1258 65.0613 78.1092L65.0622 78.1089C65.1553 78.0813 65.207 77.9848 65.1794 77.8952C65.1518 77.8021 65.0553 77.7504 64.9657 77.7779L64.9651 77.7781C64.9371 77.7871 63.9189 78.1152 63.8795 79.3704C63.7459 79.2684 63.6866 79.1006 63.6866 78.8502C63.6866 78.1606 64.1003 77.5573 64.7416 77.3056L65.6311 76.9574C65.6828 76.9401 65.7207 76.8953 65.7345 76.8436C65.7483 76.7919 65.738 76.7333 65.7035 76.6919C65.7035 76.6919 65.7021 76.69 65.7005 76.6878C65.5993 76.5504 63.1562 73.2312 64.9002 69.2276C65.4656 67.9347 66.2034 67.1624 67.0998 66.9348C68.3734 66.6139 69.5591 67.5137 69.5953 67.5411L69.596 67.5416C69.6684 67.6037 69.7787 67.5899 69.8373 67.5141C69.8959 67.4382 69.8856 67.3313 69.8097 67.2727C69.7546 67.2279 68.472 66.2349 67.0205 66.6004C66.0138 66.8555 65.1967 67.6933 64.5864 69.0931C62.9729 72.7925 64.7829 75.9369 65.3036 76.7195L64.6175 76.9884C63.8417 77.2918 63.3418 78.0227 63.3418 78.8536C63.3418 79.4639 63.6624 79.8052 64.2761 79.8431L66.0552 79.8914Z" fill="#808B9A"/>
            <path d="M59.9255 79.8914C59.591 79.8914 59.2738 79.7466 59.0532 79.4949C58.8222 79.2295 58.7257 78.8812 58.7877 78.5365L58.8946 77.94C59.0187 77.2194 59.0601 76.4851 59.0187 75.7541L58.4878 66.728C58.4809 66.6314 58.5533 66.5521 58.6498 66.5453C58.7463 66.5384 58.8256 66.6108 58.8325 66.7073L59.3635 75.7335C59.4083 76.4885 59.3635 77.2504 59.2359 77.9986L59.129 78.5951C59.0877 78.8364 59.1532 79.0812 59.3152 79.2674C59.367 79.3269 59.4258 79.3776 59.4899 79.4188C59.4588 78.5572 59.6672 78.0033 59.6803 77.9685L59.6807 77.9676C59.7151 77.878 59.8151 77.8332 59.9048 77.8711C59.9944 77.9056 60.0358 78.0055 60.0047 78.0952C60.0047 78.0957 60.0036 78.0992 60.0014 78.1057C59.9743 78.1877 59.7924 78.7372 59.8431 79.5425C59.8793 79.5463 59.916 79.5477 59.953 79.5466L60.5603 79.5257C60.5068 78.6032 60.732 78.0047 60.7457 77.9685L60.746 77.9676C60.7805 77.878 60.877 77.8332 60.9701 77.8711C61.0598 77.9056 61.1011 78.0055 61.0701 78.0952C61.0701 78.0957 61.0689 78.0992 61.0668 78.1058C61.0399 78.1868 60.862 78.7241 60.9068 79.5138L61.0529 79.5087C61.9424 79.4777 62.6457 78.7295 62.6181 77.8366L62.2837 67.1486C62.2837 67.0521 62.3561 66.9728 62.4492 66.9693C62.5354 66.9624 62.625 67.0417 62.6285 67.1348L62.9629 77.8228C62.9974 78.9019 62.1458 79.8121 61.0667 79.85L59.9668 79.888H59.9255V79.8914Z" fill="#808B9A"/>
            <path d="M54.3259 79.8914C53.9914 79.8914 53.6742 79.7466 53.4536 79.4949C53.2226 79.2295 53.126 78.8812 53.1881 78.5365L53.295 77.94C53.4191 77.2229 53.4605 76.4851 53.4191 75.7541L52.8881 66.728C52.8813 66.6314 52.9537 66.5521 53.0502 66.5453C53.1433 66.5384 53.226 66.6108 53.2329 66.7073L53.7673 75.7335C53.8121 76.492 53.7673 77.2539 53.6398 77.9986L53.5329 78.5951C53.4915 78.8364 53.557 79.0812 53.7191 79.2674C53.8037 79.3646 53.909 79.4383 54.0242 79.4856C53.9794 78.5859 54.1983 78.0042 54.2118 77.9685L54.2121 77.9676C54.2466 77.878 54.3466 77.8332 54.4362 77.8711C54.5258 77.9056 54.5672 78.0055 54.5362 78.0952C54.5362 78.0957 54.535 78.0992 54.5328 78.1057C54.5057 78.1878 54.3233 78.7388 54.3748 79.546L55.0914 79.5213C55.0389 78.6013 55.2635 78.0047 55.2771 77.9685L55.2774 77.9676C55.3119 77.878 55.4084 77.8332 55.5015 77.8711C55.5912 77.9056 55.6325 78.0055 55.6015 78.0952C55.6015 78.0957 55.6003 78.0992 55.5982 78.1058C55.5714 78.1866 55.3941 78.7221 55.4379 79.5094L55.4567 79.5087C56.3462 79.4777 57.0496 78.7295 57.022 77.8366L56.6876 67.1486C56.6876 67.0521 56.76 66.9728 56.853 66.9693C56.9392 66.9624 57.0289 67.0417 57.0323 67.1348L57.3668 77.8228C57.4012 78.9019 56.5496 79.8121 55.4705 79.85L55.3061 79.8557C55.3023 79.8563 55.2985 79.8567 55.2947 79.857H55.2774C55.2756 79.857 55.2739 79.8569 55.2721 79.8569L54.3707 79.888H54.3293L54.3259 79.8914Z" fill="#808B9A"/>
            <path d="M73.6647 74.7129C73.575 74.7129 73.4992 74.644 73.4923 74.5543C73.1165 69.4448 71.0478 67.159 71.0271 67.1383C70.9616 67.0693 70.9651 66.959 71.0375 66.8935C71.1064 66.828 71.2168 66.8314 71.2823 66.9004C71.3719 66.9969 73.4543 69.2862 73.8405 74.5268C73.8474 74.6233 73.775 74.706 73.6819 74.7129C73.6785 74.7129 73.6716 74.7129 73.6681 74.7129H73.6647Z" fill="#808B9A"/>
            <path d="M49.1797 44.3654C49.1639 46.1872 53.1506 47.6954 58.078 47.7367C63.009 47.7785 67.0183 46.3367 67.0341 44.515C67.0499 42.6932 63.0632 41.185 58.1358 41.1437C53.2048 41.1019 49.1955 42.5437 49.1797 44.3654Z" fill="#B3BECD"/>
            <path d="M60.0751 44.274C60.0751 44.274 60.3694 41.3514 59.581 40.6482C58.7926 39.945 57.9596 42.6424 57.4858 43.5351L60.0788 44.2744L60.0751 44.274Z" fill="#FFC542"/>
            <path d="M59.1955 43.5975C59.1955 43.5975 59.1955 43.5975 59.1918 43.597C59.1148 43.5882 59.0638 43.5155 59.0763 43.4389C59.2552 42.2673 59.0039 41.1874 58.9978 41.1756C58.9802 41.103 59.0261 41.0265 59.0986 41.0089C59.1749 40.9916 59.2477 41.0371 59.2654 41.1097C59.275 41.1554 59.5356 42.2511 59.3463 43.481C59.3378 43.5544 59.2688 43.6059 59.1955 43.5975Z" fill="#808B9A"/>
            <path d="M62.1344 54.4971C62.1344 54.4971 64.2405 52.3246 63.8828 49.7766L64.8308 48.8937C65.1758 48.573 65.4031 48.146 65.4715 47.6785C65.6472 46.5027 65.8541 44.2126 65.0929 43.078C64.0398 41.5088 63.1187 45.0391 62.7503 45.7583C62.7503 45.7583 61.975 44.3249 59.4475 43.6302C56.9199 42.9356 55.7072 43.6656 55.7072 43.6656C55.7072 43.6656 53.2238 42.0029 51.7475 42.6024C50.2748 43.2023 49.4552 47.3051 51.6941 48.962C52.331 49.4325 52.4538 53.3165 52.7578 53.6782C53.0613 54.0435 62.1308 54.4967 62.1308 54.4967L62.1344 54.4971Z" fill="#FFC542"/>
            <path d="M52.1621 46.4084C51.8761 46.3756 51.5635 46.2841 51.3463 46.0735C51.1156 45.8502 51.025 45.539 51.0777 45.1439C51.2016 44.2259 51.3527 43.6527 51.5039 43.5326C51.5852 43.4714 51.6993 43.4808 51.7642 43.5625C51.8291 43.6442 51.8161 43.7578 51.7343 43.8228C51.7417 43.8236 51.5958 44.0594 51.4435 45.1933C51.4083 45.4678 51.4593 45.6705 51.6031 45.8095C51.9141 46.1089 52.6058 46.0693 52.8443 46.0298C52.9466 46.0119 53.0389 46.0819 53.0573 46.1805C53.0756 46.2792 53.0089 46.3756 52.9066 46.3935C52.8837 46.3983 52.5433 46.4521 52.1621 46.4084Z" fill="#808B9A"/>
            <path d="M63.3946 47.2693C63.3103 47.2596 63.2401 47.1921 63.2318 47.102C63.2212 47.0005 63.2948 46.9087 63.3959 46.9017C63.7077 46.8706 63.9376 46.7447 64.0981 46.5106C64.6629 45.6988 64.2017 43.9561 64.2001 43.9373C64.1744 43.8378 64.2305 43.7366 64.3301 43.7108C64.4296 43.6851 64.5308 43.7413 64.5566 43.8408C64.5775 43.9175 65.0636 45.7671 64.4046 46.7203C64.1818 47.0438 63.8524 47.2289 63.4317 47.2698C63.417 47.2681 63.4056 47.2705 63.391 47.2688L63.3946 47.2693Z" fill="#808B9A"/>
            <path d="M50.7312 45.7356C50.7312 45.7356 50.7202 45.7344 50.7165 45.734C50.3475 45.6805 50.1987 45.1323 50.1701 45.0251C50.1444 44.9256 50.2079 44.8251 50.307 44.8031C50.4065 44.7774 50.507 44.8409 50.529 44.94C50.5796 45.1463 50.6999 45.3607 50.7691 45.3723C50.7985 45.3757 50.9005 45.328 51.0571 45.0636C51.1079 44.9766 51.2225 44.9489 51.3095 44.9997C51.3965 45.0506 51.4279 45.1656 51.3734 45.2522C51.2951 45.3843 51.0643 45.7776 50.7271 45.7389L50.7312 45.7356Z" fill="#808B9A"/>
            <path d="M57.3241 45.173C57.4144 44.7748 57.6118 44.4781 57.7604 44.51C57.9086 44.5455 57.9575 44.8965 57.8673 45.2947C57.777 45.6929 57.5796 45.9897 57.431 45.9578C57.2824 45.9259 57.2339 45.5712 57.3241 45.173Z" fill="#808B9A"/>
            <path d="M53.1866 42.5519C52.6793 42.4418 52.1721 42.4282 51.7477 42.5986C51.5686 42.6709 51.4019 42.7967 51.2456 42.9607L51.535 43.6438C51.535 43.6438 53.1891 43.6961 53.5179 43.485C53.7225 43.3524 53.5162 42.9165 53.1871 42.5483L53.1866 42.5519Z" fill="#808B9A"/>
            <path d="M63.7623 53.3243L64.3831 54.194L52.2922 54.6645L52.4814 53.468L63.7623 53.3243Z" fill="#808B9A"/>
            <path d="M59.1124 47.6847C51.8796 47.8617 50.892 46.0772 49.2924 44.9987L52.4845 53.4686L63.3787 53.3288L66.7408 45.3208C65.3537 46.5991 63.3133 47.5833 59.1124 47.6847Z" fill="white"/>
            <path d="M54.9567 64.6786L56.8234 63.077H56.8263C57.1055 62.8805 59.843 60.5843 60.4395 58.0434C60.5519 57.5657 60.6511 57.1552 60.7365 56.8024L60.7366 56.8017C60.9025 56.1158 61.0158 55.6475 61.0704 55.3265C61.1256 55.0025 60.9256 54.6266 60.605 54.4508C60.459 54.3704 60.3083 54.347 60.1786 54.3746C60.2943 53.9506 60.3724 53.6467 60.4085 53.4234C60.4498 53.1579 60.2085 52.8028 59.9465 52.658C59.5983 52.4649 59.2293 52.5442 59.0811 52.8442C59.0297 52.9487 58.9717 53.066 58.9084 53.1933C58.9897 52.5444 59.0382 52.1105 59.0466 51.8236C59.0535 51.5547 58.7846 51.2961 58.5088 51.2444C58.3875 51.2227 58.2692 51.2294 58.1615 51.2604C58.1213 51.0851 57.98 50.9121 57.8158 50.8479C57.4469 50.7031 57.0538 50.8273 56.8745 51.1479C56.2505 52.2719 54.8231 54.7956 54.0991 55.723C54.0707 55.7594 54.0441 55.7968 54.0192 55.8351C54.0111 55.8456 54.0033 55.8565 53.9957 55.8678C53.8349 56.1068 53.6756 56.3475 53.5219 56.5829C53.6 55.5992 53.6389 54.3414 53.3889 53.875C53.1958 53.5165 52.6476 53.0993 52.2029 53.4441C51.9361 53.6531 51.7044 54.8953 51.5464 55.7429C51.5063 55.9578 51.4709 56.1476 51.4409 56.2884C51.0995 57.913 50.6723 58.9895 50.3388 59.8299C50.0594 60.5341 49.8457 61.0726 49.8032 61.629C49.7321 62.568 47.9945 64.0168 47.9361 64.0653L47.9346 64.0631V64.0665L47.9361 64.0653C49.5985 66.497 53.1786 66.2041 53.1786 66.2041L54.9254 64.7054L54.9266 64.7078L54.9567 64.6786Z" fill="#FFC192"/>
            <path d="M54.8856 58.4089C54.8545 58.4089 54.8235 58.3985 54.7959 58.3744C54.7442 58.3261 54.7408 58.2434 54.789 58.1917C54.8063 58.1744 56.4301 56.423 57.2162 54.0337L57.2852 53.8234C57.7161 52.5167 57.9506 51.7996 58.0368 51.41C58.0506 51.341 58.1195 51.2962 58.1919 51.31C58.2609 51.3238 58.3057 51.3927 58.2919 51.4651C58.2057 51.8651 57.9678 52.5891 57.5334 53.9027L57.4645 54.113C56.6611 56.5574 54.9993 58.3503 54.9821 58.3675C54.958 58.3951 54.9235 58.4089 54.889 58.4089H54.8856Z" fill="#808B9A"/>
            <path d="M56.3063 59.4157C56.2787 59.4157 56.2477 59.4054 56.2235 59.3881C56.1684 59.3433 56.158 59.2606 56.2029 59.2054C56.2166 59.1916 57.413 57.6849 58.2232 55.275L58.306 55.0302C58.7404 53.7373 58.9817 53.0236 59.0679 52.6375C59.0852 52.5685 59.1507 52.5237 59.2231 52.5409C59.292 52.5582 59.3368 52.6271 59.3196 52.6961C59.23 53.096 58.9886 53.8131 58.5508 55.1129L58.468 55.3577C57.6406 57.8125 56.4166 59.3502 56.4028 59.3674C56.3787 59.3985 56.3408 59.4157 56.3028 59.4157H56.3063Z" fill="#808B9A"/>
            <path d="M57.5679 60.4568C57.5265 60.4568 57.4886 60.4396 57.4645 60.4016C57.4231 60.343 57.4369 60.2637 57.4921 60.2224C57.5024 60.2155 58.385 59.5501 59.247 57.0746L59.3435 56.7988C59.8089 55.4645 60.0641 54.7301 60.1606 54.3336C60.1779 54.2647 60.2468 54.2199 60.3158 54.2371C60.3847 54.2543 60.4295 54.3233 60.4123 54.3922C60.3158 54.8025 60.0572 55.5438 59.5883 56.8815L59.4918 57.1573C58.5953 59.7259 57.6817 60.4016 57.6438 60.4292C57.6196 60.4465 57.5955 60.4534 57.5679 60.4534V60.4568Z" fill="#808B9A"/>
            <path d="M51.7308 59.0811C51.7032 59.0811 51.6757 59.0742 51.6515 59.0535C51.5929 59.0121 51.5826 58.9294 51.6274 58.8708L53.4202 56.5056C53.4616 56.4504 53.5443 56.4367 53.603 56.4815C53.6581 56.5228 53.6719 56.6056 53.6271 56.6642L51.8343 59.0293C51.8101 59.0638 51.7688 59.0811 51.7308 59.0811Z" fill="#808B9A"/>
            <path d="M39.3534 81.0121L54.4855 68.2554L48.6175 61.6151L31.8408 74.12L39.3534 81.0121Z" fill="#DCF0FF"/>
            <path d="M39.3535 68.752C39.3328 68.752 39.3156 68.752 39.2949 68.7416C39.2052 68.7106 39.1604 68.6106 39.1914 68.521L41.0946 63.2184C41.1256 63.1287 41.2256 63.0805 41.3152 63.1149C41.4049 63.146 41.4497 63.2459 41.4187 63.3356L39.5155 68.6382C39.4914 68.7072 39.4224 68.752 39.3535 68.752Z" fill="#808B9A"/>
            <path d="M34.3618 72.1308C34.3377 72.1308 34.3101 72.1239 34.2859 72.1135L32.2794 71.1344C32.1932 71.093 32.1587 70.9896 32.2001 70.9034C32.2414 70.8172 32.3449 70.7827 32.4311 70.8241L34.4376 71.8033C34.5238 71.8446 34.5583 71.9481 34.5169 72.0342C34.4859 72.0963 34.4273 72.1308 34.3618 72.1308Z" fill="#808B9A"/>
            <path d="M39.5611 59.7292C39.5094 59.7292 39.4577 59.7051 39.4232 59.6603L34.5861 53.0717C34.5309 52.9958 34.5447 52.8855 34.624 52.8303C34.6998 52.7752 34.8067 52.7889 34.8653 52.8682L39.7025 59.4569C39.7577 59.5327 39.7439 59.643 39.6646 59.6982C39.6335 59.7223 39.5991 59.7327 39.5611 59.7327V59.7292Z" fill="#808B9A"/>
            <path d="M31.9825 74.2532C31.9659 74.2409 31.952 74.2307 31.9415 74.2101C31.8877 74.1319 31.911 74.0248 31.9891 73.9711L46.2106 63.2276C46.2888 63.1739 46.3979 63.1943 46.4496 63.2753C46.5034 63.3534 46.4801 63.4605 46.402 63.5142L32.1805 74.2577C32.1202 74.2989 32.0381 74.2941 31.9825 74.2532Z" fill="#808B9A"/>
            <path d="M100.392 79.7915H13.5713V81.6498H100.392V79.7915Z" fill="#808B9A"/>
            <path d="M20.1221 81.15L20.1221 145.905H21.9804L21.9804 81.15H20.1221Z" fill="#808B9A"/>
            <path d="M91.624 81.15V145.905H93.4824V81.15H91.624Z" fill="#808B9A"/>
        </g>
    </g>
    <defs>
        <clipPath id="clip0_2601_21940">
            <rect width="87.6522" height="131.122" fill="white" transform="translate(13.4131 15.0477)"/>
        </clipPath>
    </defs>
</svg>
