<svg width="19" height="19" viewBox="0 0 19 19" fill="none" xmlns="http://www.w3.org/2000/svg">
    <path d="M18.5 8.83293V17.5001C18.5 17.8979 18.342 18.2795 18.0607 18.5608C17.7794 18.8421 17.3978 19.0001 17 19.0001H13.25C12.8522 19.0001 12.4706 18.8421 12.1893 18.5608C11.908 18.2795 11.75 17.8979 11.75 17.5001V13.7501C11.75 13.5512 11.671 13.3604 11.5303 13.2198C11.3897 13.0791 11.1989 13.0001 11 13.0001H8C7.80109 13.0001 7.61032 13.0791 7.46967 13.2198C7.32902 13.3604 7.25 13.5512 7.25 13.7501V17.5001C7.25 17.8979 7.09196 18.2795 6.81066 18.5608C6.52936 18.8421 6.14782 19.0001 5.75 19.0001H2C1.60218 19.0001 1.22064 18.8421 0.93934 18.5608C0.658035 18.2795 0.5 17.8979 0.5 17.5001V8.83293C0.499968 8.62533 0.543031 8.41998 0.626461 8.22988C0.709891 8.03978 0.831873 7.86907 0.984687 7.72855L8.48469 0.652302L8.495 0.64199C8.77113 0.390864 9.13097 0.251709 9.50422 0.251709C9.87747 0.251709 10.2373 0.390864 10.5134 0.64199C10.5166 0.645658 10.5201 0.649103 10.5238 0.652302L18.0238 7.72855C18.175 7.86981 18.2954 8.04086 18.3774 8.23092C18.4594 8.42098 18.5011 8.62595 18.5 8.83293Z" fill="#1B85F3"/>
</svg>
