<svg width="388" height="150" viewBox="0 0 388 150" fill="none" xmlns="http://www.w3.org/2000/svg">
    <g clip-path="url(#clip0_2601_25866)">
        <mask id="mask0_2601_25866" style="mask-type:alpha" maskUnits="userSpaceOnUse" x="1" y="-11" width="387" height="172">
            <mask id="path-1-inside-1_2601_25866" fill="white">
                <path fill-rule="evenodd" clip-rule="evenodd" d="M317.207 5.23246C317.207 -3.61085 310.038 -10.7798 301.195 -10.7798H17.0122C8.16892 -10.7798 1 -3.61085 1 5.23246V144.768C1 153.611 8.16892 160.78 17.0122 160.78H371.988C380.831 160.78 388 153.611 388 144.768V-10.7796C388 -10.7797 388 -10.7798 388 -10.7798C388 -10.7798 388 -10.7797 388 -10.7796V41.8318C388 50.6752 380.831 57.8441 371.987 57.8441H333.219C324.376 57.8441 317.207 50.6751 317.207 41.8318V5.23246Z"/>
            </mask>
            <path fill-rule="evenodd" clip-rule="evenodd" d="M317.207 5.23246C317.207 -3.61085 310.038 -10.7798 301.195 -10.7798H17.0122C8.16892 -10.7798 1 -3.61085 1 5.23246V144.768C1 153.611 8.16892 160.78 17.0122 160.78H371.988C380.831 160.78 388 153.611 388 144.768V-10.7796C388 -10.7797 388 -10.7798 388 -10.7798C388 -10.7798 388 -10.7797 388 -10.7796V41.8318C388 50.6752 380.831 57.8441 371.987 57.8441H333.219C324.376 57.8441 317.207 50.6751 317.207 41.8318V5.23246Z" fill="#D9DFE6"/>
            <path d="M17.0122 -9.63605H301.195V-11.9235H17.0122V-9.63605ZM2.14373 144.768V5.23246H-0.143731V144.768H2.14373ZM371.988 159.636H17.0122V161.924H371.988V159.636ZM386.856 -10.7796V144.768H389.144V-10.7796H386.856ZM386.856 -10.7796V41.8318H389.143V-10.7796H386.856ZM371.987 56.7003H333.219V58.9878H371.987V56.7003ZM333.219 56.7003C325.007 56.7003 318.351 50.0435 318.351 41.8318H316.063C316.063 51.3068 323.744 58.9878 333.219 58.9878V56.7003ZM318.351 41.8318V5.23246H316.063V41.8318H318.351ZM386.856 41.8318C386.856 50.0435 380.199 56.7003 371.987 56.7003V58.9878C381.462 58.9878 389.143 51.3068 389.143 41.8318H386.856ZM388 -11.9235C387.368 -11.9235 386.856 -11.4114 386.856 -10.7796H389.143C389.143 -10.148 388.631 -9.63605 388 -9.63605V-11.9235ZM389.144 -10.7796C389.144 -11.4114 388.632 -11.9235 388 -11.9235V-9.63605C387.368 -9.63605 386.856 -10.148 386.856 -10.7796H389.144ZM371.988 161.924C381.463 161.924 389.144 154.243 389.144 144.768H386.856C386.856 152.979 380.199 159.636 371.988 159.636V161.924ZM-0.143731 144.768C-0.143731 154.243 7.53726 161.924 17.0122 161.924V159.636C8.80059 159.636 2.14373 152.979 2.14373 144.768H-0.143731ZM301.195 -9.63605C309.406 -9.63605 316.063 -2.97919 316.063 5.23246H318.351C318.351 -4.24251 310.67 -11.9235 301.195 -11.9235V-9.63605ZM17.0122 -11.9235C7.53725 -11.9235 -0.143731 -4.24251 -0.143731 5.23246H2.14373C2.14373 -2.97919 8.80059 -9.63605 17.0122 -9.63605V-11.9235Z" fill="#ECEFF2" mask="url(#path-1-inside-1_2601_25866)"/>
        </mask>
        <g mask="url(#mask0_2601_25866)">
            <rect x="-9.79492" y="-34.7981" width="422.037" height="220.74" fill="#D9DFE6"/>
            <path d="M948.894 -492.697C894.777 -504.114 852.94 -459.122 852.94 -459.122C784.921 -393.625 720.718 -298.482 692.931 -209.742C672.962 -145.988 664.849 -79.3707 648.144 -14.7451C631.421 49.8805 604.629 114.524 554.79 160.619C494.349 216.495 407.394 237.995 323.72 240.716C285.755 241.943 247.532 239.774 209.899 244.824C172.267 249.875 134.265 263.088 108.47 289.995C75.0222 324.868 67.8865 375.516 62.3366 422.731C60.0871 441.849 57.8376 460.966 55.5881 480.084L28.9261 761.651" stroke="#ECEFF2" stroke-width="94.4489" stroke-miterlimit="10"/>
            <path d="M28.8913 761.633C31.1408 742.515 60.0522 441.848 62.3201 422.73C67.8885 375.533 75.0242 324.885 108.453 289.994C134.248 263.087 172.269 249.874 209.883 244.823C247.516 239.773 285.72 241.942 323.703 240.715C407.377 237.994 494.351 216.494 554.774 160.618C604.613 114.523 631.422 49.8795 648.128 -14.7461C664.851 -79.3718 672.964 -145.989 692.915 -209.743C720.701 -298.483 784.904 -393.608 852.923 -459.123C852.923 -459.123 886.297 -495.953 948.877 -492.698" stroke="#ECEFF2" stroke-width="79.9183" stroke-miterlimit="10"/>
            <path d="M28.8919 761.633C31.1414 742.515 60.0529 441.848 62.3208 422.731C67.8892 375.533 75.0249 324.885 108.454 289.994C134.249 263.087 172.269 249.874 209.884 244.823C247.517 239.773 285.721 241.942 323.704 240.715C407.378 237.994 494.352 216.494 554.775 160.618C604.614 114.523 631.423 49.8796 648.128 -14.746C664.852 -79.3716 672.965 -145.989 692.915 -209.743C720.702 -298.483 784.905 -393.608 852.924 -459.123C852.924 -459.123 874.46 -486.172 930.273 -491.062" stroke="white" stroke-width="54.4897" stroke-miterlimit="10"/>
            <path d="M249.693 -56.5903C276.41 24.2006 282.827 114.612 267.762 198.16" stroke="#ECEFF2" stroke-width="16.3469" stroke-miterlimit="10"/>
            <path d="M272.61 46.4125C310.556 24.2007 346.161 -2.52802 373.818 -36.0145C401.476 -69.5011 420.873 -110.154 424.174 -152.835" stroke="#ECEFF2" stroke-width="3.63265" stroke-miterlimit="10"/>
            <path d="M138.821 -37.7039C129.97 9.15593 138.618 57.2783 147.727 104.103C154.328 138.051 161.279 172.285 175.624 203.922" stroke="#ECEFF2" stroke-width="3.63265" stroke-miterlimit="10"/>
            <path d="M267.983 80.8945C229.244 90.391 189.657 96.6863 149.793 99.7096C148.982 99.7629 147.986 99.9763 147.802 100.741C147.617 101.506 149.314 101.701 149 100.972" stroke="#ECEFF2" stroke-width="3.63265" stroke-miterlimit="10"/>
            <path d="M136.496 50.0762C73.0494 59.4659 9.25239 66.7039 -54.729 71.7722" stroke="#ECEFF2" stroke-width="3.63265" stroke-miterlimit="10"/>
            <path d="M28.0427 61.8662C31.9332 106.058 44.2685 152.029 60.5313 193.518" stroke="#ECEFF2" stroke-width="3.63265" stroke-miterlimit="10"/>
        </g>
        <path d="M219.305 64.7609C219.305 78.9883 201.135 111.683 193.653 111.683C186.171 111.683 168 78.9883 168 64.7609C168 50.5336 179.485 39 193.653 39C207.82 39 219.305 50.5336 219.305 64.7609Z" fill="white"/>
        <g filter="url(#filter0_d_2601_25866)">
            <rect x="174.413" y="46.4819" width="38.479" height="38.479" rx="19.2395" fill="#A461D8" shape-rendering="crispEdges"/>
            <path d="M190.802 68.5714L199.652 57.7214M187.652 57.7214L196.502 68.5714M191.652 70.7214C191.652 72.3783 190.309 73.7214 188.652 73.7214C186.995 73.7214 185.652 72.3783 185.652 70.7214C185.652 69.0646 186.995 67.7214 188.652 67.7214C190.309 67.7214 191.652 69.0646 191.652 70.7214ZM201.652 70.7214C201.652 72.3783 200.309 73.7214 198.652 73.7214C196.995 73.7214 195.652 72.3783 195.652 70.7214C195.652 69.0646 196.995 67.7214 198.652 67.7214C200.309 67.7214 201.652 69.0646 201.652 70.7214Z" stroke="white" stroke-width="1.5" stroke-linecap="round" stroke-linejoin="round"/>
        </g>
        <rect x="341" y="11" width="38" height="38" rx="14" fill="#2A3240"/>
        <path d="M363.333 23.3333H366.666M366.666 23.3333V26.6666M366.666 23.3333L361.666 28.3333M356.666 36.6666H353.333M353.333 36.6666V33.3333M353.333 36.6666L358.333 31.6666M363.333 36.6666H366.666M366.666 36.6666V33.3333M366.666 36.6666L361.666 31.6666M356.666 23.3333H353.333M353.333 23.3333V26.6666M353.333 23.3333L358.333 28.3333" stroke="white" stroke-width="1.5" stroke-linecap="round" stroke-linejoin="round"/>
    </g>
    <defs>
        <filter id="filter0_d_2601_25866" x="168.413" y="43.4819" width="50.4795" height="50.479" filterUnits="userSpaceOnUse" color-interpolation-filters="sRGB">
            <feFlood flood-opacity="0" result="BackgroundImageFix"/>
            <feColorMatrix in="SourceAlpha" type="matrix" values="0 0 0 0 0 0 0 0 0 0 0 0 0 0 0 0 0 0 127 0" result="hardAlpha"/>
            <feOffset dy="3"/>
            <feGaussianBlur stdDeviation="3"/>
            <feComposite in2="hardAlpha" operator="out"/>
            <feColorMatrix type="matrix" values="0 0 0 0 0.283333 0 0 0 0 0.283333 0 0 0 0 0.283333 0 0 0 0.16 0"/>
            <feBlend mode="normal" in2="BackgroundImageFix" result="effect1_dropShadow_2601_25866"/>
            <feBlend mode="normal" in="SourceGraphic" in2="effect1_dropShadow_2601_25866" result="shape"/>
        </filter>
        <clipPath id="clip0_2601_25866">
            <rect width="388" height="150" fill="white"/>
        </clipPath>
    </defs>
</svg>
