<svg width="116" height="116" viewBox="0 0 116 116" fill="none" xmlns="http://www.w3.org/2000/svg">
    <circle cx="57.2393" cy="36.7469" r="60.6817" stroke="#ECEFF2"/>
    <path d="M97.3036 36.7826C97.3036 59.4503 79.3106 77.8261 57.1152 77.8261C34.9197 77.8261 16.9268 59.4503 16.9268 36.7826C16.9268 14.1149 34.9197 -4.26086 57.1152 -4.26086C79.3106 -4.26086 97.3036 14.1149 97.3036 36.7826Z" fill="#FFEADB"/>
    <mask id="mask0_2601_21921" style="mask-type:alpha" maskUnits="userSpaceOnUse" x="-4" y="-25" width="123" height="123">
        <circle cx="57.2393" cy="36.7469" r="61.1817" fill="#D9D9D9"/>
    </mask>
    <g mask="url(#mask0_2601_21921)">
        <g clip-path="url(#clip0_2601_21921)">
            <ellipse cx="56.7178" cy="51.3914" rx="26.087" ry="13.913" fill="#808B9A"/>
            <path d="M30.8191 56.7841C36.1976 61.0194 45.8897 63.9132 56.6824 63.9132C68.154 63.9132 78.3735 60.6436 83.5004 55.9703C83.4104 55.7983 83.3618 55.6017 83.3746 55.3921C83.5876 51.9432 79.2068 51.2379 79.0196 51.2089C78.5736 51.141 78.2163 50.8028 78.1191 50.3576C77.8761 49.2286 77.4116 48.4987 76.7012 48.1301C75.7793 47.6502 74.6059 47.8453 73.9098 48.0347C73.9184 48.0549 73.9269 48.0795 73.9298 48.0882C71.8851 46.025 70.7212 46.9949 70.4938 46.7728C67.0788 44.8325 65.4767 44.435 59.9912 42.9524C58.9064 42.1097 57.3684 41.5474 54.7885 41.6688C50.7107 41.8625 48.8441 44.0784 48.2123 45.0599C46.2514 44.435 47.5732 47.6132 46.7087 46.6456C46.6286 46.5588 44.6162 44.4094 41.4931 45.5412C38.3887 46.6615 38.5888 49.6305 38.6002 49.7562C38.6331 50.1754 38.4273 50.5773 38.0685 50.7912C37.7098 51.0051 37.2624 50.9921 36.9151 50.758C36.8107 50.6886 34.2394 49.0176 32.4056 50.6654C29.9272 52.8929 30.7562 56.4502 30.7934 56.6006C30.8077 56.6627 30.8148 56.7249 30.8191 56.7856V56.7841Z" fill="#FFEEC6"/>
            <path fill-rule="evenodd" clip-rule="evenodd" d="M77.8825 40.6C78.5583 41.041 79.2066 41.5073 79.8196 42.0045C85.5768 46.6769 88.4951 53.8695 88.4951 63.384C88.4951 75.0087 75.242 83.445 56.9815 83.445C38.7209 83.445 25.4668 75.0076 25.4668 63.384C25.4668 53.8585 28.3719 46.6659 34.1048 42.0034C39.4001 37.6949 47.0977 35.5109 56.9837 35.5109C60.2636 35.5109 63.2977 35.7589 66.0903 36.2418C66.182 36.2654 66.2804 36.2906 66.3847 36.3172C68.6734 36.9025 72.0215 37.4784 74.8042 38.8697C76.5433 39.7393 76.8911 39.9132 77.8825 40.6ZM75.4902 41.7768L72.7172 40.6089C71.6737 40.261 70.3974 39.8141 68.5433 39.2176C67.4814 38.8759 65.941 38.5712 65.0804 38.3575C62.5491 37.9275 59.8292 37.6927 56.9815 37.6927C42.9358 37.6927 31.9329 43.3319 31.9329 50.529C31.9329 57.726 42.9358 63.3642 56.9815 63.3642C71.0272 63.3642 82.029 57.726 82.029 50.529C82.029 47.1179 80.3694 45.1306 76.8911 42.6958C76.5433 42.348 75.4803 41.7785 75.4902 41.7768ZM56.9809 79.2918C56.9088 79.2747 50.8693 76.9728 50.8693 72.6846C50.8693 71.7299 51.2563 70.8358 51.9365 70.1654C52.6167 69.4962 53.5175 69.1313 54.4722 69.139C55.4226 69.1467 56.3123 69.5227 56.9815 70.1963C57.6496 69.5216 58.5404 69.1467 59.4897 69.139C60.4444 69.1313 61.3451 69.4951 62.0254 70.1654C62.7056 70.8347 63.0926 71.7299 63.0926 72.6846C63.0926 76.9717 57.053 79.2747 56.9809 79.2918Z" fill="#FF974A"/>
            <path d="M65.7352 66.9561C65.7451 66.8249 65.8471 66.7084 65.9884 66.6881C79.7863 64.9002 85.243 55.2765 85.2969 55.1797C85.3775 55.0383 85.552 54.9894 85.694 55.0623C85.8359 55.1351 85.8842 55.3173 85.8114 55.4593C85.7575 55.5561 80.1722 65.4418 66.0692 67.2609C65.9125 67.28 65.7657 67.168 65.7465 67.0113C65.7483 66.9881 65.7494 66.9727 65.7512 66.9496L65.7352 66.9561Z" fill="white"/>
            <path d="M47.9787 66.9561C47.9687 66.8249 47.8668 66.7084 47.7255 66.6881C33.9276 64.9002 28.4709 55.2765 28.4169 55.1797C28.3364 55.0383 28.1619 54.9894 28.0199 55.0623C27.8779 55.1351 27.8296 55.3173 27.9025 55.4593C27.9564 55.5561 33.5417 65.4418 47.6447 67.2609C47.8014 67.28 47.9482 67.168 47.9673 67.0113C47.9656 66.9881 47.9644 66.9727 47.9627 66.9496L47.9787 66.9561Z" fill="white"/>
            <path d="M59.4895 69.1401C58.5392 69.1479 57.6495 69.5238 56.9813 70.1974C56.3132 69.5227 55.4224 69.1479 54.4721 69.1401C53.5173 69.1324 52.6166 69.4962 51.9364 70.1666C51.2561 70.8358 50.8691 71.731 50.8691 72.6857C50.8691 76.9888 56.9538 79.293 56.9813 79.293C57.0089 79.293 63.0936 76.9899 63.0936 72.6857C63.0936 71.731 62.7066 70.8369 62.0263 70.1666C61.3461 69.4973 60.4454 69.1324 59.4906 69.1401H59.4895Z" fill="white"/>
            <path d="M71.1567 18.4205C72.6039 19.3324 73.608 20.6701 74.1083 22.1615C75.6912 21.9828 77.3443 22.3195 78.7915 23.2314C82.1356 25.3386 83.1139 29.7195 80.9764 33.0164C79.2303 35.7097 75.9451 36.8463 72.9775 36.0235L66.1413 46.5679C68.2156 48.8781 68.5807 52.3492 66.8117 55.0778C64.6742 58.3747 60.2305 59.3391 56.8863 57.2319C55.4392 56.32 54.4351 54.9823 53.9348 53.4909C52.3518 53.6696 50.6987 53.3329 49.2516 52.421C45.9074 50.3138 44.9292 45.9329 47.0666 42.636C48.8128 39.9427 52.098 38.8061 55.0656 39.629L61.9018 29.0845C59.8275 26.7744 59.4623 23.3032 61.2313 20.5746C63.3688 17.2777 67.8125 16.3133 71.1567 18.4205Z" fill="white"/>
        </g>
    </g>
    <defs>
        <clipPath id="clip0_2601_21921">
            <rect width="64" height="74.4348" fill="white" transform="translate(25.0654 9.65222)"/>
        </clipPath>
    </defs>
</svg>
