<svg width="48" height="47" viewBox="0 0 48 47" fill="none" xmlns="http://www.w3.org/2000/svg">
    <rect x="0.701172" y="0.403931" width="46" height="46" rx="12" transform="rotate(-0.387376 0.701172 0.403931)" fill="#FFFFFF"/>
    <path d="M16.3695 25.6345C16.6302 25.7452 16.9156 25.8008 17.2072 25.793C17.5318 25.7976 17.8527 25.7231 18.1421 25.576C18.4315 25.4288 18.6807 25.2134 18.8682 24.9484C19.0557 24.6834 19.3049 24.468 19.5943 24.3209C19.8837 24.1737 20.2046 24.0992 20.5292 24.1038C20.8537 24.0949 21.1756 24.165 21.4669 24.3082C21.7583 24.4514 22.0104 24.6634 22.2015 24.9259C22.3926 25.1883 22.6447 25.4003 22.936 25.5436C23.2274 25.6868 23.5492 25.7569 23.8737 25.7479C24.1983 25.7525 24.5192 25.6781 24.8086 25.5309C25.098 25.3838 25.3472 25.1684 25.5347 24.9034C25.7222 24.6383 25.9715 24.423 26.2609 24.2758C26.5502 24.1287 26.8711 24.0542 27.1957 24.0588C27.5202 24.0498 27.8421 24.1199 28.1334 24.2631C28.4248 24.4064 28.6769 24.6184 28.868 24.8808C29.0591 25.1433 29.3112 25.3553 29.6025 25.4985C29.8939 25.6417 30.2157 25.7119 30.5402 25.7029C30.8319 25.7067 31.1165 25.6473 31.3758 25.533M16.4021 29.9652L31.4018 29.8638L31.3567 23.1973C31.3522 22.5343 31.0845 21.9002 30.6125 21.4345C30.1405 20.9688 29.5029 20.7098 28.8398 20.7142L18.8401 20.7818C18.177 20.7863 17.5429 21.054 17.0773 21.526C16.6116 21.998 16.3525 22.6357 16.357 23.2987L16.4021 29.9652ZM23.8118 16.5815L25.0418 17.9382C25.2612 18.1709 25.4091 18.4618 25.4677 18.7763C25.5262 19.0907 25.4931 19.4154 25.3722 19.7115C25.2513 20.0076 25.0478 20.2627 24.7859 20.4463C24.524 20.6299 24.2148 20.7343 23.8951 20.7469C23.5755 20.7596 23.2591 20.68 22.9834 20.5177C22.7078 20.3554 22.4847 20.1172 22.3408 19.8316C22.1969 19.5459 22.1382 19.2249 22.1717 18.9068C22.2052 18.5887 22.3296 18.287 22.5299 18.0377L23.8118 16.5815Z" stroke="#F3CFD7" stroke-width="1.2" stroke-linecap="round" stroke-linejoin="round"/>
</svg>
