<svg width="47" height="47" viewBox="0 0 47 47" fill="none" xmlns="http://www.w3.org/2000/svg">
    <rect x="0.228516" y="0.4021" width="46" height="46" rx="12" transform="rotate(-0.387376 0.228516 0.4021)" fill="#FFFFFF"/>
    <path d="M20.9343 30.7628L20.9005 25.763C20.8975 25.3209 21.0702 24.8958 21.3807 24.5812C21.6911 24.2665 22.1138 24.0881 22.5559 24.0851L24.2225 24.0738C24.6645 24.0708 25.0896 24.2435 25.4043 24.554C25.7189 24.8644 25.8974 25.2871 25.9004 25.7292L25.9342 30.729M17.5503 23.2856L15.8837 23.2968L23.3328 15.7463L30.8834 23.1954L29.2167 23.2067L29.2562 29.0399C29.2592 29.4819 29.0864 29.907 28.776 30.2217C28.4656 30.5363 28.0428 30.7148 27.6008 30.7178L19.2677 30.7741C18.8257 30.7771 18.4006 30.6044 18.0859 30.2939C17.7712 29.9835 17.5928 29.5608 17.5898 29.1188L17.5503 23.2856Z" stroke="#F3CFD7" stroke-width="1.2" stroke-linecap="round" stroke-linejoin="round"/>
</svg>
