<svg width="116" height="116" viewBox="0 0 116 116" fill="none" xmlns="http://www.w3.org/2000/svg">
    <circle cx="56.8917" cy="36.7469" r="60.6817" stroke="#ECEFF2"/>
    <path d="M96.9559 36.7826C96.9559 59.4503 78.963 77.8261 56.7675 77.8261C34.5721 77.8261 16.5791 59.4503 16.5791 36.7826C16.5791 14.1149 34.5721 -4.26086 56.7675 -4.26086C78.963 -4.26086 96.9559 14.1149 96.9559 36.7826Z" fill="#F2E6FF"/>
    <g clip-path="url(#clip0_2601_22047)">
        <path d="M92.331 56.0538C93.3316 56.1395 93.7818 56.4885 93.7818 56.4885C93.7818 56.4885 95.8926 55.3953 97.001 56.0051C98.1094 56.6149 98.3832 59.941 96.4667 61.0519C96.14 61.2405 95.8482 62.4165 95.6078 63.385C95.4469 64.0334 95.3091 64.5889 95.1993 64.693C95.0602 64.8259 93.1343 64.7711 91.2728 64.685L95.2744 65.0056C96.3651 69.3895 95.4753 74.8488 94.2278 78.6251C92.9803 82.4014 93.2386 88.6146 93.2386 88.6146L93.6692 89.1978C93.9982 89.6457 94.1594 90.1934 94.1262 90.7478C94.0975 91.1979 93.7288 91.5483 93.2806 91.5527L92.159 91.5616C91.4745 91.566 90.8496 91.1669 90.5692 90.5394L90.4213 90.2067C90.2932 89.9207 90.2469 89.6058 90.2866 89.2954C90.4058 88.3729 90.6289 86.2065 90.4478 83.8982C90.2093 80.8448 90.3727 78.4699 90.3727 78.4699L87.9374 79.0819C87.7696 79.7006 88.1515 82.1952 88.4474 83.9026C88.6307 84.9625 88.3326 86.0468 87.6327 86.8606L85.9171 88.8519C85.4512 89.393 84.621 89.4107 84.1331 88.8918C83.6561 88.384 83.5877 87.6168 83.9653 87.0314L84.7469 85.8229C85.0759 85.3129 85.1266 84.672 84.8816 84.1177C84.0403 82.2107 83.219 79.3103 83.219 79.3103C81.7494 79.3773 79.7069 78.8297 78.1114 78.3C77.8611 79.6969 77.0368 82.3439 74.3298 83.9514C74.3298 83.9514 73.164 85.2841 73.8043 88.6391C73.8153 88.7012 74.2238 88.9939 74.6057 89.2555C75.0297 89.546 75.2946 90.0161 75.3255 90.5305C75.3587 91.0982 74.9149 91.5794 74.3496 91.5927L73.3936 91.6149C72.7599 91.6304 72.1726 91.2933 71.8613 90.739L71.3888 89.8964C71.2386 89.6258 71.1658 89.322 71.179 89.0116C71.2398 87.6719 71.3605 83.8483 70.7986 82.8832C70.4061 83.2232 70.1523 83.4391 70.1523 83.4391C68.737 86.834 69.3398 88.8918 69.3398 88.8918L69.8366 89.4528C70.1678 89.8254 70.3223 90.3221 70.2649 90.8165C70.2164 91.2489 69.8587 91.5793 69.4259 91.5971L69.0859 91.6104C68.1298 91.6459 67.2268 91.1647 66.7212 90.3487C66.518 90.0183 66.4275 89.628 66.4827 89.2444C66.8272 86.8451 65.9506 82.0067 65.9506 82.0067C65.9506 82.0067 68.0526 79.3391 68.0526 77.5563C68.0526 75.7735 68.4765 73.9485 69.0196 72.0194C69.0903 71.7683 69.1588 71.4763 69.2333 71.1582C69.2581 71.0525 69.2835 70.944 69.31 70.8331C68.529 71.0181 67.6812 70.8869 66.9971 70.434C66.0234 69.7887 65.4339 68.5247 65.52 67.2941C65.5311 67.1233 65.5819 66.9615 65.668 66.8173C65.9901 66.2729 66.4473 66.2049 66.8058 66.3832C66.041 64.9203 66.0955 62.9509 67.0347 61.5953L67.9929 64.01C67.4564 62.1452 67.6772 60.0408 68.5847 58.3534C69.2493 57.1161 70.2782 56.116 71.4749 55.5062C71.7663 55.3576 72.0313 55.7545 71.8171 56.014C70.7948 57.2491 70.1457 58.8479 70.0242 60.5043C69.872 62.5953 70.5652 64.7428 71.8815 66.2806C72.4564 65.944 73.1635 65.7418 74.0405 65.7418C83.1549 65.7418 86.7009 64.3094 86.7009 64.3094L86.6943 64.3182L87.6623 64.3958C87.3839 63.9936 86.3296 62.318 86.776 60.5885L86.1092 59.8013C85.8663 59.5153 85.7272 59.156 85.7139 58.7813C85.683 57.8322 85.725 56.0006 86.4293 55.1691C87.2113 54.2466 87.6273 55.9242 87.8775 56.933C87.9388 57.1804 87.9901 57.3875 88.0345 57.5063C88.0345 57.5063 88.6444 56.6295 90.292 56.2278C90.3311 55.558 90.4753 54.1144 90.9976 53.7433C91.5285 53.3661 91.8958 54.605 92.1708 55.5328C92.228 55.7257 92.2812 55.9051 92.331 56.0538Z" fill="#FFC542"/>
        <path d="M93.4372 91.6525C93.4372 91.6525 93.4306 91.6525 93.4261 91.6525C93.3643 91.6458 93.3202 91.5904 93.3246 91.5283C93.4593 90.1358 92.841 89.8009 92.8344 89.7965C92.7792 89.7677 92.7571 89.7012 92.7836 89.6457C92.8101 89.5903 92.8764 89.5681 92.9316 89.5947C92.9625 89.6102 93.6977 89.9872 93.5454 91.5505C93.5388 91.6081 93.4902 91.6525 93.4328 91.6525H93.4372Z" fill="#808B9A"/>
        <path d="M92.6296 91.6525C92.6296 91.6525 92.6229 91.6525 92.6185 91.6525C92.5567 91.6458 92.5126 91.5904 92.517 91.5283C92.6517 90.1358 92.0334 89.8009 92.0268 89.7965C91.9716 89.7677 91.9495 89.7012 91.976 89.6457C92.0025 89.5903 92.0688 89.5681 92.124 89.5947C92.1549 89.6102 92.8901 89.9872 92.7378 91.5505C92.7311 91.6081 92.6826 91.6525 92.6252 91.6525H92.6296Z" fill="#808B9A"/>
        <path d="M84.9009 89.3707C84.8656 89.3707 84.8281 89.353 84.8082 89.3197C84.7729 89.2687 84.7883 89.1978 84.8391 89.1623C85.3116 88.8474 85.6848 88.1356 85.687 88.1267C85.7157 88.0713 85.7819 88.0491 85.8393 88.078C85.8945 88.1068 85.9166 88.1755 85.8879 88.231C85.8724 88.262 85.4838 89.0004 84.965 89.3486C84.9451 89.3619 84.9252 89.3685 84.9031 89.3685L84.9009 89.3707Z" fill="#808B9A"/>
        <path d="M84.2496 89.1444C84.2142 89.1444 84.1767 89.1266 84.1568 89.0934C84.1215 89.0424 84.137 88.9714 84.1877 88.9382C84.6602 88.6211 85.0334 87.9115 85.0356 87.9026C85.0643 87.8472 85.1328 87.8272 85.1879 87.8538C85.2431 87.8827 85.2652 87.9514 85.2365 88.0068C85.2211 88.0379 84.8325 88.7763 84.3136 89.1244C84.2937 89.1377 84.2739 89.1444 84.2518 89.1444H84.2496Z" fill="#808B9A"/>
        <path d="M69.956 91.4995H69.9516C69.8898 91.4972 69.8412 91.444 69.8456 91.3819C69.892 90.3663 69.2583 89.914 69.2517 89.9096C69.2009 89.8741 69.1876 89.8031 69.223 89.7521C69.2583 89.7011 69.3289 89.6878 69.3797 89.7233C69.4106 89.7455 70.1216 90.2533 70.0686 91.3908C70.0664 91.4507 70.0156 91.4995 69.956 91.4995Z" fill="#808B9A"/>
        <path d="M69.1457 91.7278H69.1413C69.0795 91.7256 69.0309 91.6724 69.0331 91.6103C69.0795 90.6014 68.4657 90.1579 68.4392 90.1379C68.3884 90.1025 68.3751 90.0315 68.4105 89.9805C68.4458 89.9295 68.5164 89.9162 68.5672 89.9517C68.5981 89.9739 69.3091 90.4816 69.2561 91.6192C69.2539 91.6791 69.2031 91.7278 69.1435 91.7278H69.1457Z" fill="#808B9A"/>
        <path d="M75.0742 91.4995H75.0697C75.0079 91.4972 74.9594 91.444 74.9638 91.3819C75.0101 90.373 74.3963 89.9295 74.3698 89.9096C74.319 89.8741 74.3058 89.8031 74.3411 89.7521C74.3765 89.7011 74.4471 89.6878 74.4979 89.7233C74.5288 89.7455 75.2398 90.2533 75.1868 91.3908C75.1846 91.4507 75.1338 91.4995 75.0742 91.4995Z" fill="#808B9A"/>
        <path d="M74.2639 91.7278H74.2595C74.1976 91.7256 74.1491 91.6724 74.1513 91.6103C74.1976 90.5947 73.564 90.1424 73.5573 90.1379C73.5065 90.1025 73.4933 90.0315 73.5286 89.9805C73.564 89.9295 73.6346 89.9162 73.6854 89.9517C73.7163 89.9739 74.4273 90.4816 74.3743 91.6192C74.3721 91.6791 74.3213 91.7278 74.2617 91.7278H74.2639Z" fill="#808B9A"/>
        <path d="M70.7702 82.9513C70.7304 82.9513 70.6929 82.9291 70.6708 82.8937C70.6399 82.8382 70.6598 82.7695 70.715 82.7407C74.5016 80.6496 75.0867 79.3302 75.4577 77.8202C75.7292 76.7115 75.652 75.1615 74.6208 74.137C74.5767 74.0927 74.5767 74.0217 74.6208 73.9774C74.665 73.933 74.7357 73.933 74.7798 73.9774C75.8772 75.0661 75.9633 76.7048 75.6762 77.8734C75.228 79.705 74.3537 80.9911 70.8254 82.938C70.8077 82.9469 70.7901 82.9513 70.7724 82.9513H70.7702Z" fill="#808B9A"/>
        <path d="M78.1112 78.4075C78.098 78.4075 78.0847 78.4053 78.0715 78.4008L75.592 77.4761C75.5346 77.454 75.5036 77.3897 75.5257 77.332C75.5478 77.2744 75.6118 77.2433 75.6692 77.2655L78.1488 78.1902C78.2062 78.2123 78.2371 78.2766 78.215 78.3343C78.1973 78.3809 78.1554 78.4075 78.109 78.4075H78.1112Z" fill="#808B9A"/>
        <path d="M83.1854 79.4166C83.1302 79.4166 83.0817 79.3745 83.075 79.319C83.0706 79.2946 82.7725 76.7801 85.6738 74.8043C85.7246 74.7689 85.7952 74.7822 85.8306 74.8354C85.8659 74.8864 85.8526 74.9574 85.7996 74.9928C83.011 76.891 83.2936 79.268 83.2958 79.2902C83.3047 79.3523 83.2605 79.4077 83.1987 79.4166C83.1943 79.4166 83.1876 79.4166 83.1832 79.4166H83.1854Z" fill="#808B9A"/>
        <path d="M90.3855 78.545C90.3281 78.545 90.2795 78.5029 90.2751 78.4452C90.2684 78.3831 90.3126 78.3277 90.3744 78.321C90.3855 78.321 91.5446 78.1924 92.4013 77.8532C92.4587 77.8288 92.525 77.8576 92.547 77.9175C92.5691 77.9751 92.5404 78.0416 92.483 78.0638C91.5976 78.4142 90.4473 78.5406 90.3987 78.545C90.3943 78.545 90.3899 78.545 90.3877 78.545H90.3855Z" fill="#808B9A"/>
        <path d="M91.0328 56.1178C90.9732 56.1178 90.9224 56.0713 90.9202 56.0092C90.8827 55.0202 91.1852 54.1732 91.1984 54.1377C91.2205 54.08 91.2845 54.049 91.3419 54.0712C91.3993 54.0933 91.4302 54.1576 91.4082 54.2153C91.406 54.2242 91.1079 55.0557 91.1432 56.0003C91.1454 56.0624 91.0968 56.1156 91.035 56.1178H91.0306H91.0328Z" fill="#808B9A"/>
        <path d="M87.387 58.6102C87.387 58.6102 87.3716 58.6102 87.3628 58.608C87.0448 58.5393 86.8108 58.3685 86.6695 58.1002C86.2411 57.2997 86.7865 55.8939 86.8108 55.834C86.8329 55.7763 86.8991 55.7475 86.9565 55.7697C87.0139 55.7919 87.0426 55.8584 87.0205 55.916C87.0161 55.9293 86.4906 57.2842 86.8682 57.9915C86.9808 58.2022 87.1574 58.3286 87.4113 58.384C87.471 58.3973 87.5107 58.4572 87.4974 58.5171C87.4864 58.5703 87.44 58.6058 87.387 58.6058V58.6102Z" fill="#808B9A"/>
        <path d="M92.3686 57.5349C92.3333 57.2089 92.2052 56.9561 92.0838 56.9716C91.9623 56.9849 91.8939 57.2599 91.9292 57.5859C91.9645 57.9118 92.0926 58.1646 92.214 58.1491C92.3355 58.1358 92.4039 57.8608 92.3686 57.5349Z" fill="#808B9A"/>
        <path d="M97.0005 56.0026C96.6826 55.8275 96.2807 55.7942 95.8701 55.8341H95.8679C95.5764 56.0958 95.3733 56.424 95.5234 56.5459C95.7059 56.6952 96.5165 56.7952 96.8873 56.8339C96.8777 56.8684 96.8859 56.9054 96.9144 56.934C96.9189 56.9406 97.0226 57.118 97.0403 58.0826C97.0447 58.3154 96.9829 58.4795 96.846 58.5837C96.5259 58.8305 95.9084 58.6739 95.8244 58.6526L95.8149 58.6503C95.7553 58.6347 95.6934 58.668 95.6758 58.7279C95.6603 58.7877 95.6935 58.8498 95.7531 58.8676L95.7591 58.8692C95.8028 58.881 96.0476 58.9474 96.3293 58.9474L96.3271 58.9496C96.5501 58.9496 96.7952 58.9075 96.9807 58.7656C97.1045 58.6684 97.1889 58.5389 97.2315 58.3771C97.3196 58.4901 97.4146 58.546 97.5194 58.546L97.5172 58.5483H97.5283C97.802 58.5372 97.9632 58.138 97.9919 58.0582C98.014 58.0006 97.9831 57.9363 97.9257 57.9141C97.8683 57.8919 97.8043 57.923 97.7822 57.9806C97.7292 58.1225 97.6099 58.3199 97.5216 58.3221C97.4708 58.3221 97.3847 58.2445 97.2898 58.0316C97.2831 58.0158 97.2733 58.0023 97.2614 57.9916C97.2454 57.3589 97.1867 56.9352 97.0984 56.8073L97.3626 56.3353C97.2567 56.1911 97.1352 56.0758 97.0005 56.0026Z" fill="#808B9A"/>
        <path d="M86.9102 63.0055L86.4443 64.398L95.4771 65.5134L95.4373 64.5466L86.9102 63.0055Z" fill="#808B9A"/>
        <path d="M46.1511 87.3596L42.0752 78.0308L46.1864 77.4343L49.5712 85.6965L49.2003 87.9871L46.1511 87.3596Z" fill="#D9DFE6"/>
        <path d="M42.9369 82.2418L47.6487 79.5498L36.0349 47.6565L31.7735 44.5831L26.3574 45.7761L42.9369 82.2418Z" fill="#B3BECD"/>
        <path d="M45.4778 86.1932L47.211 91.2933L59.3768 86.0469C59.3768 86.0469 58.317 82.6254 56.9613 82.9513C55.6035 83.2773 51.9603 84.2419 51.9603 84.2419L48.3084 83.2263L48.251 86.6456L45.4756 86.1954L45.4778 86.1932Z" fill="#808B9A"/>
        <path d="M51.9759 84.2193C51.9759 84.2193 49.8474 82.2503 49.0195 81.9709C47.9928 81.625 47.719 82.8423 48.898 83.4033C50.0771 83.9666 51.9759 84.2171 51.9759 84.2171V84.2193Z" fill="#808B9A"/>
        <path d="M51.9755 84.3216C52.013 84.3216 52.0483 84.2994 52.066 84.264C52.0837 84.224 52.0748 84.1775 52.0417 84.1464C51.9534 84.0644 49.889 82.1596 49.0499 81.878C48.4913 81.6895 48.1734 81.9312 48.0718 82.1951C47.9195 82.5831 48.1425 83.1575 48.8578 83.4989C50.0369 84.0622 51.8871 84.3127 51.9644 84.3216C51.9688 84.3216 51.9733 84.3216 51.9777 84.3216H51.9755ZM48.6768 82.0133C48.7695 82.0133 48.8755 82.031 48.9859 82.0687C49.6196 82.2816 51.0746 83.5477 51.6597 84.071C51.068 83.9713 49.8006 83.7273 48.9395 83.3149C48.3412 83.0288 48.1403 82.5632 48.2529 82.2683C48.3191 82.0997 48.4714 82.011 48.6768 82.011V82.0133Z" fill="white"/>
        <path d="M52.5251 85.0001C52.5605 85.0001 52.5936 84.9802 52.6112 84.9491L53.479 83.3703L53.989 84.5721C54.0111 84.6231 54.0685 84.6475 54.1193 84.6254C54.17 84.6032 54.1921 84.5433 54.17 84.4923L53.5827 83.1042C53.5673 83.0687 53.5342 83.0466 53.4966 83.0443C53.4591 83.0443 53.4238 83.0621 53.4061 83.0953L52.5384 84.6742L51.9113 83.1929C51.8981 83.1596 51.8672 83.1375 51.8318 83.133C51.7965 83.1286 51.7634 83.1441 51.7413 83.1729L50.708 84.5611L50.2841 81.8425C50.2774 81.7981 50.2421 81.7627 50.1979 81.7582C50.1538 81.7516 50.1118 81.7782 50.0942 81.8181L49.1403 84.1154C49.1183 84.1664 49.1403 84.2262 49.1933 84.2484C49.2441 84.2706 49.3015 84.2484 49.3236 84.1952L50.1427 82.2195L50.549 84.8249C50.5556 84.8648 50.5843 84.8981 50.6219 84.907C50.6594 84.9158 50.7014 84.9025 50.7256 84.8693L51.7965 83.4302L52.4368 84.9402C52.4523 84.9757 52.4854 84.9979 52.5229 85.0001H52.5273H52.5251Z" fill="white"/>
        <path d="M14.3812 74.605L23.553 70.5781L24.1359 74.7691L16.4699 77.3856L13.7607 77.7005L14.3812 74.605Z" fill="#D9DFE6"/>
        <path d="M26.3566 46.1622L32.1967 65.0126L19.0527 72.0551L21.5543 76.8803L36.065 70.7291C37.9329 69.9375 39.0612 67.9995 38.8536 65.9439L37.8777 56.3735L27.624 45.4703L26.3566 46.1622Z" fill="#B3BECD"/>
        <path d="M15.2841 74.0883L10.5547 76.4676L17.3154 88.1069C17.3154 88.1069 20.5037 86.6145 20.0003 85.2863C19.4969 83.958 18.0639 80.3946 18.0639 80.3946L18.5563 76.5829L15.2201 76.9465L15.2819 74.0883H15.2841Z" fill="#808B9A"/>
        <path d="M18.086 80.4079C18.086 80.4079 19.7132 78.0153 19.8722 77.1438C20.0687 76.0662 18.8477 75.9376 18.4613 77.1993C18.0749 78.4588 18.086 80.4079 18.086 80.4079Z" fill="#808B9A"/>
        <path d="M18.1277 80.4987C18.1431 80.492 18.1586 80.4809 18.1674 80.4654C18.2336 80.3678 19.8079 78.0462 19.9691 77.1636C20.0773 76.576 19.7969 76.2855 19.5275 76.2146C19.1279 76.1104 18.6002 76.4031 18.3661 77.1681C17.9775 78.4298 17.9863 80.3279 17.9863 80.4077C17.9863 80.4521 18.015 80.4898 18.057 80.5031C18.0813 80.5097 18.1056 80.5097 18.1277 80.4987ZM19.1433 76.4452C19.2603 76.392 19.3774 76.3787 19.4811 76.4075C19.7306 76.474 19.8454 76.7468 19.777 77.1237C19.6556 77.7912 18.62 79.4165 18.1917 80.0707C18.2071 79.4609 18.2734 78.1504 18.5582 77.2302C18.6885 76.8088 18.9181 76.5494 19.1455 76.4474L19.1433 76.4452Z" fill="white"/>
        <path d="M18.1101 82.6608C18.1101 82.6608 18.1167 82.6586 18.1211 82.6564L19.3929 81.8913C19.426 81.8714 19.4437 81.8359 19.4392 81.7982C19.437 81.7605 19.4127 81.7273 19.3774 81.7117L17.7237 81.031L19.0816 80.215C19.1125 80.1972 19.1301 80.164 19.1301 80.1285C19.1301 80.093 19.1103 80.0597 19.0793 80.042L17.5868 79.1683L20.1767 78.4033C20.2186 78.39 20.2473 78.3523 20.2473 78.3058C20.2473 78.2614 20.2164 78.2215 20.1745 78.2082L17.8076 77.5274C17.7546 77.5119 17.6994 77.543 17.6861 77.5962C17.6729 77.6494 17.7038 77.7048 17.7568 77.7204L19.7903 78.3058L17.3086 79.0375C17.271 79.0486 17.2423 79.0819 17.2379 79.1218C17.2335 79.1617 17.2534 79.2016 17.2887 79.2216L18.8343 80.1263L17.4521 80.9578C17.419 80.9778 17.4013 81.0132 17.4057 81.0509C17.4079 81.0886 17.4322 81.1219 17.4675 81.1374L19.1213 81.8182L18.0195 82.4812C17.9732 82.51 17.9577 82.5699 17.9864 82.6187C18.0129 82.663 18.0681 82.6807 18.1123 82.6586L18.1101 82.6608Z" fill="white"/>
        <path d="M37.5575 70.2756C37.5031 70.2939 37.4356 70.2458 37.4015 70.1652L31.9108 56.5198C31.8767 56.4322 31.8918 56.3386 31.9483 56.3126C32.0047 56.2865 32.0784 56.3325 32.1126 56.4201L37.6033 70.0655C37.6374 70.1531 37.6223 70.2467 37.5658 70.2727C37.5617 70.2742 37.5596 70.2749 37.5554 70.2763L37.5575 70.2756Z" fill="#808B9A"/>
        <path d="M34.4364 65.123H32.1976C32.1357 65.123 32.085 65.072 32.085 65.0099C32.085 64.9479 32.1357 64.8969 32.1976 64.8969H34.4364C34.4983 64.8969 34.549 64.9479 34.549 65.0099C34.549 65.072 34.4983 65.123 34.4364 65.123Z" fill="#808B9A"/>
        <path d="M33.6737 66.8374C33.645 66.8374 33.6163 66.8263 33.5942 66.8041L32.4218 65.6266C32.3776 65.5823 32.3776 65.5113 32.4218 65.467C32.466 65.4226 32.5366 65.4226 32.5808 65.467L33.7532 66.6444C33.7973 66.6888 33.7973 66.7597 33.7532 66.8041C33.7311 66.8263 33.7024 66.8374 33.6737 66.8374Z" fill="#808B9A"/>
        <path d="M34.4624 20.7742L33.3496 24.3442L35.5642 25.4241L37.0877 21.5015L34.4624 20.7742Z" fill="#FFC192"/>
        <path d="M36.9107 21.9584L35.5352 21.5105L36.5287 22.9407L36.9107 21.9584Z" fill="#FF974A"/>
        <path d="M39.4369 17.8318C39.0174 15.9448 37.3371 15.4925 37.3371 15.4925L37.3393 15.4902L34.511 16.4393C34.511 16.4393 33.9766 19.7588 34.7649 20.9074C35.5531 22.0583 37.5999 22.4397 38.7016 21.6791C39.4444 21.1653 39.7374 20.2225 39.6112 18.9005L40.1854 18.0003L39.4921 18.0959C39.4751 18.0092 39.4567 17.9212 39.4369 17.8318Z" fill="#FFC192"/>
        <path d="M34.8068 14.9824C34.8068 14.9824 36.3678 14.5367 38.8253 15.3572C39.3993 15.5479 37.1804 16.1821 36.6858 16.0823C36.6858 16.0823 37.5866 16.5479 37.0876 16.7697C36.6659 16.9582 36.2596 16.814 35.8512 16.579C35.8512 16.579 36.1272 17.5879 35.0011 18.3618C33.8751 19.1335 35.1557 21.056 35.1557 21.056L34.0914 21.9651C34.0914 21.9651 32.1484 20.3176 32.1484 18.129C32.1484 16.1178 33.6211 15.5213 34.8068 14.9846V14.9824Z" fill="#808B9A"/>
        <path d="M33.6009 19.3552C33.517 18.7898 33.8791 18.2665 34.4113 18.1867C34.9434 18.1068 35.4402 18.5015 35.5241 19.0692C35.608 19.6346 35.2437 20.1579 34.7138 20.2378C34.1816 20.3176 33.6848 19.9229 33.6009 19.3552Z" fill="#FFC192"/>
        <path d="M37.5251 16.9914C37.492 16.9914 37.4611 16.9781 37.439 16.9515C37.3993 16.9027 37.4059 16.8317 37.4545 16.7918C37.8519 16.4614 38.3928 16.6277 38.4171 16.6344C38.4767 16.6521 38.5099 16.7164 38.49 16.7763C38.4723 16.8362 38.4083 16.8694 38.3487 16.8495C38.3443 16.8495 37.8982 16.7142 37.598 16.9648C37.5781 16.9825 37.5516 16.9914 37.5273 16.9914H37.5251Z" fill="#808B9A"/>
        <path d="M39.3267 20.3596C39.1766 20.3596 38.8409 20.3108 38.4192 19.9538C38.3729 19.9139 38.3662 19.8429 38.406 19.7942C38.4457 19.7476 38.5164 19.7409 38.565 19.7808C39.0419 20.1822 39.3664 20.1312 39.3709 20.1312C39.4305 20.1179 39.4901 20.16 39.5011 20.2221C39.5122 20.282 39.4746 20.3419 39.415 20.3529C39.4106 20.3529 39.3797 20.3596 39.3289 20.3596H39.3267Z" fill="#808B9A"/>
        <path d="M37.6613 17.3681L38.7533 17.2056C39.0067 17.1678 39.2424 17.3435 39.28 17.5979L39.3544 18.1024C39.4127 18.4972 39.141 18.865 38.7479 18.9235L38.1582 19.0112C37.7651 19.0698 37.3989 18.797 37.3407 18.4021L37.2669 17.902C37.229 17.6454 37.4057 17.4061 37.6613 17.3681Z" fill="#A461D8"/>
        <path d="M39.2632 18.1758C39.2279 18.1758 39.1948 18.1603 39.1727 18.1293C39.1351 18.0783 39.1462 18.0095 39.197 17.9718L39.4465 17.7856C39.4973 17.7479 39.5657 17.759 39.6032 17.81C39.6408 17.861 39.6297 17.9297 39.5789 17.9674L39.3294 18.1537C39.3096 18.1692 39.2853 18.1758 39.2632 18.1758Z" fill="#808B9A"/>
        <path d="M34.9001 18.6214C34.8471 18.6214 34.8007 18.5837 34.7897 18.5305C34.7764 18.4684 34.8162 18.4107 34.8758 18.3974L37.2537 17.903C37.3133 17.8896 37.373 17.9296 37.3862 17.9894C37.3995 18.0515 37.3597 18.1092 37.3001 18.1225L34.9221 18.617C34.9221 18.617 34.9067 18.6192 34.9001 18.6192V18.6214Z" fill="#808B9A"/>
        <path d="M35.1405 19.4063C35.1604 19.4196 35.1825 19.4263 35.2046 19.4263C35.2399 19.4263 35.2752 19.4085 35.2973 19.3775C35.3326 19.3265 35.3194 19.2555 35.2686 19.2201L34.3192 18.5681C34.2684 18.5327 34.1977 18.546 34.1624 18.597C34.1271 18.648 34.1403 18.7189 34.1911 18.7544L34.8447 19.2032L34.5665 19.6081C34.5312 19.6591 34.5444 19.73 34.5952 19.7655C34.6151 19.7788 34.6371 19.7855 34.6592 19.7855C34.6945 19.7855 34.7299 19.7677 34.752 19.7367L35.0307 19.3309L35.1405 19.4063Z" fill="#808B9A"/>
        <path d="M25.9015 43.0619L24.7158 48.0733L30.77 46.2417L37.533 50.9316L37.2327 43.9356L25.9015 43.0619Z" fill="white"/>
        <path d="M49.8807 45.3726C49.8807 45.3726 53.4377 46.9713 54.3849 48.9094C55.1842 50.5436 52.7533 51.5171 52.7533 51.5171L50.733 50.1689L47.5889 46.9758L49.8785 45.3726H49.8807Z" fill="#FFC192"/>
        <path d="M53.2409 49.5877C53.2034 49.5877 53.1658 49.5677 53.1437 49.5322C52.8103 48.9779 52.1877 48.9003 52.1811 48.9003C52.1192 48.8936 52.0751 48.8382 52.0817 48.7761C52.0883 48.714 52.1435 48.6697 52.2054 48.6763C52.2363 48.6785 52.9428 48.7628 53.3358 49.4147C53.3667 49.4679 53.3513 49.5367 53.2983 49.5699C53.2806 49.581 53.2608 49.5855 53.2409 49.5855V49.5877Z" fill="#808B9A"/>
        <path d="M52.6204 50.4593C52.5917 50.4593 52.5608 50.4482 52.5387 50.4238C52.4968 50.3795 52.4968 50.3063 52.5432 50.2641L52.998 49.8295C53.0422 49.7874 53.1128 49.7874 53.157 49.834C53.1989 49.8783 53.1989 49.9493 53.1526 49.9936L52.6977 50.4282C52.6756 50.4482 52.6491 50.4593 52.6204 50.4593Z" fill="#808B9A"/>
        <path d="M53.7247 54.9095C53.5437 54.9095 53.3604 54.8784 53.1816 54.8186C52.7577 54.6744 52.4154 54.3729 52.2189 53.9693L51.1326 51.7474C50.9361 51.3439 50.9052 50.8871 51.0509 50.4635C51.1944 50.0378 51.4969 49.6941 51.8966 49.4967C52.7245 49.0887 53.7314 49.4324 54.1376 50.264L55.2239 52.4858C55.4205 52.8894 55.4514 53.3462 55.3056 53.7697C55.1621 54.1955 54.8596 54.5392 54.46 54.7365C54.2259 54.8518 53.9765 54.9095 53.7225 54.9095H53.7247ZM52.634 49.9979C52.4861 49.9979 52.3359 50.0311 52.1946 50.0999C51.7001 50.3438 51.4947 50.9492 51.7376 51.4459L52.8239 53.6677C52.9409 53.9094 53.1463 54.089 53.4002 54.1755C53.6541 54.262 53.9257 54.2443 54.1641 54.1267C54.4048 54.0092 54.5836 53.803 54.6697 53.548C54.7559 53.293 54.7382 53.0202 54.6212 52.7808L53.5349 50.5589C53.3604 50.2041 53.005 49.9979 52.634 49.9979Z" fill="#808B9A"/>
        <path d="M48.4983 48.0132C48.4983 48.0132 48.9796 49.8803 49.9511 50.4391C51.0197 51.0533 52.4615 52.2884 52.8788 51.805C53.1681 51.4702 53.2939 50.7517 51.5872 49.306C49.8826 47.8602 49.9445 46.7227 49.9445 46.7227L47.2949 47.1218L48.4983 48.0132Z" fill="#FFC192"/>
        <path d="M53.0357 51.497C53.0357 51.497 53.0158 51.497 53.007 51.4926C52.9474 51.477 52.9121 51.4149 52.9275 51.3573C52.9319 51.3396 53.0401 50.6743 51.5166 49.3926C51.4681 49.3527 51.4636 49.2818 51.5034 49.233C51.5431 49.1864 51.6138 49.1798 51.6624 49.2197C53.3073 50.6034 53.1682 51.3351 53.1461 51.4127C53.1329 51.4637 53.0865 51.497 53.0379 51.497H53.0357Z" fill="#808B9A"/>
        <path d="M81.1907 64.4068C78.4771 64.4068 75.0968 64.2937 71.6678 63.8924C61.1293 62.6572 55.1811 59.4264 53.9844 54.2842C53.9424 54.1024 54.055 53.9206 54.2361 53.8784C54.4171 53.8363 54.5982 53.9494 54.6401 54.1312C57.3426 65.7373 86.6819 63.573 86.9777 63.5487C87.1632 63.5309 87.3244 63.6728 87.3399 63.8591C87.3553 64.0454 87.2162 64.2072 87.0307 64.2228C86.9888 64.225 84.6241 64.4068 81.1929 64.4068H81.1907Z" fill="#808B9A"/>
        <path d="M36.1074 26.6814L50.6755 45.4254L47.5314 48.0397L36.9884 37.2785L36.1074 26.6814Z" fill="#A461D8"/>
        <path d="M36.0737 26.3069C36.0737 26.3069 37.1004 30.6109 37.1004 33.4248C37.1004 36.2388 37.5221 44.1018 37.5221 44.1018H25.2305L30.6444 26.6927L36.0737 26.3091V26.3069Z" fill="#A461D8"/>
        <path d="M35.7924 24.8379L35.9395 24.4592L36.3219 24.5862L37.7019 27.7172L35.7832 26.9566L35.7924 24.8379Z" fill="#D6BCFA"/>
        <path d="M36.0853 24.777L33.5064 23.7281L31.8262 25.5686L36.5291 27.8925L36.0853 24.777Z" fill="white"/>
        <path fill-rule="evenodd" clip-rule="evenodd" d="M20.7247 49.4284L21.0537 47.426H21.0559L23.6216 48.231C23.6216 48.231 23.255 49.486 23.4295 50.1867C23.4505 50.2713 23.4671 50.3885 23.4801 50.5292C23.9597 51.0343 24.5365 51.7179 24.7387 52.2688C24.9232 52.7737 25.0419 53.215 25.1404 53.5807L25.1404 53.5808L25.1404 53.5808L25.1404 53.5808L25.1404 53.5809C25.2092 53.8366 25.2681 54.0555 25.3326 54.2334C25.3746 54.3509 25.3172 54.464 25.1958 54.4973C24.9661 54.5616 24.6835 54.4507 24.5422 54.2445C24.3457 53.954 24.0918 53.5371 23.9726 53.158C23.9249 53.0043 23.7275 52.8172 23.5105 52.6494C23.5014 53.0835 23.4883 53.459 23.4804 53.664L23.5113 57.0252C23.5157 57.2535 23.3126 57.4043 23.0631 57.36C22.8268 57.3179 22.6347 57.1161 22.6281 56.901L22.5198 53.548L22.5099 53.5451L22.1748 56.9521C22.1505 57.1916 21.9253 57.3335 21.678 57.267C21.4439 57.2027 21.2739 56.9743 21.296 56.7481L21.6026 53.2769L21.5821 53.2708L21.1881 56.2934C21.1616 56.5018 20.9342 56.6171 20.6869 56.5462C20.4529 56.4797 20.2895 56.2712 20.3116 56.0739L20.677 53.0033L20.617 52.9855L19.7219 54.9341C19.6579 55.076 19.4526 55.1071 19.2693 55.0051C19.0971 54.9097 19.0088 54.7279 19.0684 54.5926L19.8944 52.732C19.9421 52.4509 20.2422 50.6926 20.3538 50.2422C20.4752 49.7521 20.7247 49.4284 20.7247 49.4284Z" fill="#FFC192"/>
        <path d="M30.9985 25.8524C33.9174 24.2071 34.8713 28.2495 34.8713 28.2495H34.8691L33.7379 31.0812L33.8066 31.1303L33.6539 31.2915L33.0585 32.7819C33.0585 32.7819 32.1077 33.4307 30.8161 34.2864L25.9025 39.4719L23.8823 49.8428L19.9609 48.9714L21.4027 38.647C21.6059 37.7999 21.9923 37.0083 22.5354 36.3298L29.1641 28.0246C29.8815 26.9231 30.5244 26.1198 30.9985 25.8524Z" fill="#A461D8"/>
        <path d="M27.0129 38.4871C26.9864 38.4871 26.9577 38.4761 26.9356 38.4561C26.8892 38.414 26.887 38.343 26.9312 38.2964L31.4597 33.4425C31.5017 33.3959 31.5723 33.3937 31.6187 33.438C31.6628 33.4802 31.6672 33.5511 31.6231 33.5977L27.0946 38.4517C27.0725 38.4761 27.0416 38.4871 27.0129 38.4871Z" fill="white"/>
        <path d="M37.3841 37.7111C37.3267 37.7111 37.2781 37.6667 37.2715 37.6091L36.4192 27.9034C36.4148 27.8413 36.459 27.7859 36.5208 27.7814C36.5826 27.777 36.6378 27.8213 36.6423 27.8834L37.4945 37.5891C37.4989 37.6512 37.4548 37.7067 37.393 37.7111C37.3885 37.7111 37.3863 37.7111 37.3819 37.7111H37.3841Z" fill="white"/>
        <path d="M25.5601 38.9797C25.5292 38.9797 25.4982 38.9664 25.4762 38.942L24.3678 37.6714C24.3258 37.6249 24.3324 37.5539 24.3788 37.5118C24.4252 37.4719 24.4958 37.4763 24.5378 37.5229L25.6462 38.7934C25.6881 38.84 25.6815 38.911 25.6351 38.9531C25.6131 38.9708 25.5866 38.9819 25.5601 38.9819V38.9797Z" fill="white"/>
    </g>
    <defs>
        <clipPath id="clip0_2601_22047">
            <rect width="88.0417" height="77.913" fill="white" transform="translate(9.95898 14.5217)"/>
        </clipPath>
    </defs>
</svg>
