<svg width="34" height="34" viewBox="0 0 34 34" fill="none" xmlns="http://www.w3.org/2000/svg" xmlns:xlink="http://www.w3.org/1999/xlink">
    <path d="M4.333,2.667L4.333,1.167L4.333,2.667ZM11,2.667L12.393,2.11C12.165,1.54 11.613,1.167 11,1.167L11,2.667ZM14.333,11L15.105,12.286C15.736,11.907 15.999,11.126 15.726,10.443L14.333,11ZM10.167,13.5L9.395,12.214C8.726,12.615 8.476,13.463 8.821,14.163L10.167,13.5ZM18.5,21.833L17.837,23.179C18.537,23.524 19.385,23.274 19.786,22.605L18.5,21.833ZM21,17.667L21.557,16.274C20.874,16.001 20.093,16.264 19.714,16.895L21,17.667ZM29.333,21L30.833,21C30.833,20.387 30.46,19.835 29.89,19.607L29.333,21ZM26,31L25.909,32.497C25.939,32.499 25.97,32.5 26,32.5L26,31ZM1,6L-0.5,6C-0.5,6.03 -0.499,6.061 -0.497,6.091L1,6ZM21,6.167C20.172,6.167 19.5,6.838 19.5,7.667C19.5,8.495 20.172,9.167 21,9.167L21,6.167ZM22.833,11C22.833,11.828 23.505,12.5 24.333,12.5C25.162,12.5 25.833,11.828 25.833,11L22.833,11ZM21,-0.5C20.172,-0.5 19.5,0.172 19.5,1C19.5,1.828 20.172,2.5 21,2.5L21,-0.5ZM29.5,11C29.5,11.828 30.172,12.5 31,12.5C31.828,12.5 32.5,11.828 32.5,11L29.5,11ZM4.333,4.167L11,4.167L11,1.167L4.333,1.167L4.333,4.167ZM9.607,3.224L12.941,11.557L15.726,10.443L12.393,2.11L9.607,3.224ZM13.562,9.714L9.395,12.214L10.938,14.786L15.105,12.286L13.562,9.714ZM8.821,14.163C10.752,18.079 13.921,21.248 17.837,23.179L19.163,20.488C15.84,18.849 13.151,16.16 11.512,12.837L8.821,14.163ZM19.786,22.605L22.286,18.438L19.714,16.895L17.214,21.062L19.786,22.605ZM20.443,19.059L28.776,22.393L29.89,19.607L21.557,16.274L20.443,19.059ZM27.833,21L27.833,27.667L30.833,27.667L30.833,21L27.833,21ZM27.833,27.667C27.833,28.153 27.64,28.619 27.296,28.963L29.418,31.084C30.324,30.178 30.833,28.949 30.833,27.667L27.833,27.667ZM27.296,28.963C26.953,29.307 26.486,29.5 26,29.5L26,32.5C27.282,32.5 28.511,31.991 29.418,31.084L27.296,28.963ZM26.091,29.503C19.955,29.13 14.169,26.524 9.822,22.178L7.701,24.299C12.565,29.164 19.042,32.08 25.909,32.497L26.091,29.503ZM9.822,22.178C5.476,17.831 2.87,12.045 2.497,5.909L-0.497,6.091C-0.08,12.958 2.836,19.435 7.701,24.299L9.822,22.178ZM2.5,6C2.5,5.514 2.693,5.047 3.037,4.704L0.916,2.582C0.009,3.489 -0.5,4.718 -0.5,6L2.5,6ZM3.037,4.704C3.381,4.36 3.847,4.167 4.333,4.167L4.333,1.167C3.051,1.167 1.822,1.676 0.916,2.582L3.037,4.704ZM21,9.167C21.486,9.167 21.953,9.36 22.296,9.704L24.418,7.582C23.511,6.676 22.282,6.167 21,6.167L21,9.167ZM22.296,9.704C22.64,10.047 22.833,10.514 22.833,11L25.833,11C25.833,9.718 25.324,8.489 24.418,7.582L22.296,9.704ZM21,2.5C23.254,2.5 25.416,3.396 27.01,4.99L29.132,2.868C26.975,0.712 24.05,-0.5 21,-0.5L21,2.5ZM27.01,4.99C28.604,6.584 29.5,8.746 29.5,11L32.5,11C32.5,7.95 31.288,5.025 29.132,2.868L27.01,4.99Z" fill="#F5C8E1"/>
</svg>
