<?xml version="1.0" encoding="UTF-8"?>
<svg xmlns="http://www.w3.org/2000/svg" xmlns:xlink="http://www.w3.org/1999/xlink" width="300" zoomAndPan="magnify" viewBox="0 0 224.87999 225" height="300" preserveAspectRatio="xMidYMid meet" version="1.0">
    <defs>
        <filter x="0%" y="0%" width="100%" height="100%" id="d22a9808ff">
            <feColorMatrix values="0 0 0 0 1 0 0 0 0 1 0 0 0 0 1 0 0 0 1 0" color-interpolation-filters="sRGB"></feColorMatrix>
        </filter>
        <mask id="0b30b49cec">
            <g filter="url(#d22a9808ff)">
                <rect x="-22.487999" width="269.855988" fill="#000000" y="-22.5" height="270" fill-opacity="0.17"></rect>
            </g>
        </mask>
        <clipPath id="8400d23280">
            <path d="M 0.3125 0.371094 L 188.570312 0.371094 L 188.570312 188.628906 L 0.3125 188.628906 Z M 0.3125 0.371094 " clip-rule="nonzero"></path>
        </clipPath>
        <clipPath id="38b463c363">
            <path d="M 94.441406 0.371094 C 42.453125 0.371094 0.3125 42.515625 0.3125 94.5 C 0.3125 146.484375 42.453125 188.628906 94.441406 188.628906 C 146.425781 188.628906 188.570312 146.484375 188.570312 94.5 C 188.570312 42.515625 146.425781 0.371094 94.441406 0.371094 Z M 94.441406 0.371094 " clip-rule="nonzero"></path>
        </clipPath>
        <clipPath id="83572d7468">
            <rect x="0" width="189" y="0" height="189"></rect>
        </clipPath>
        <clipPath id="05be3019cc">
            <path d="M 53.128906 42.828125 L 171.566406 42.828125 L 171.566406 182.25 L 53.128906 182.25 Z M 53.128906 42.828125 " clip-rule="nonzero"></path>
        </clipPath>
    </defs>
    <g mask="url(#0b30b49cec)">
        <g transform="matrix(1, 0, 0, 1, 18, 18)">
            <g clip-path="url(#83572d7468)">
                <g clip-path="url(#8400d23280)">
                    <g clip-path="url(#38b463c363)">
                        <path fill="#FFC0CB" d="M 0.3125 0.371094 L 188.570312 0.371094 L 188.570312 188.628906 L 0.3125 188.628906 Z M 0.3125 0.371094 " fill-opacity="1" fill-rule="nonzero"></path>
                    </g>
                </g>
            </g>
        </g>
    </g>
    <g clip-path="url(#05be3019cc)">
        <path fill="#FFC0CB" d="M 101.253906 70.164062 C 95.804688 70.164062 91.539062 64.160156 91.539062 56.492188 C 91.539062 48.828125 95.804688 42.828125 101.253906 42.828125 C 106.703125 42.828125 110.972656 48.828125 110.972656 56.492188 C 110.972656 64.160156 106.703125 70.164062 101.253906 70.164062 Z M 76.894531 76.703125 C 74.296875 71.007812 75.496094 65.042969 79.625 63.113281 C 80.464844 62.722656 81.371094 62.527344 82.316406 62.527344 C 85.949219 62.527344 89.609375 65.394531 91.640625 69.835938 C 94.242188 75.523438 93.046875 81.488281 88.917969 83.417969 C 88.074219 83.808594 87.167969 84.007812 86.222656 84.007812 C 82.589844 84.007812 78.925781 81.140625 76.894531 76.703125 Z M 122.472656 70.164062 C 117.023438 70.164062 112.757812 64.160156 112.753906 56.492188 C 112.753906 48.828125 117.023438 42.828125 122.472656 42.828125 C 127.921875 42.828125 132.191406 48.828125 132.191406 56.492188 C 132.191406 64.160156 127.921875 70.164062 122.472656 70.164062 Z M 132.09375 69.835938 C 134.125 65.394531 137.785156 62.527344 141.414062 62.527344 C 142.363281 62.527344 143.269531 62.726562 144.109375 63.117188 C 148.238281 65.042969 149.433594 71.011719 146.835938 76.703125 C 144.804688 81.140625 141.144531 84.007812 137.511719 84.007812 C 136.5625 84.007812 135.660156 83.808594 134.820312 83.421875 C 130.679688 81.484375 129.488281 75.519531 132.09375 69.835938 Z M 90.261719 92.121094 C 90.667969 91.441406 96.007812 80.515625 100.859375 76.101562 C 104.9375 72.398438 111.167969 72.289062 111.863281 72.289062 C 112.5625 72.289062 118.792969 72.398438 122.871094 76.101562 C 127.722656 80.515625 133.0625 91.441406 133.46875 92.121094 C 136.339844 96.707031 138.101562 99.695312 138.101562 103.128906 C 138.101562 109.386719 133.59375 113.433594 126.621094 113.433594 L 126.464844 113.433594 C 123.90625 113.433594 122.074219 113.285156 118.226562 111.269531 C 118.199219 111.253906 118.171875 111.238281 118.144531 111.222656 C 118.121094 111.210938 115.015625 107.390625 112.050781 107.582031 C 111.925781 107.589844 111.800781 107.589844 111.679688 107.582031 C 108.71875 107.390625 105.609375 111.210938 105.578125 111.226562 C 105.558594 111.238281 105.527344 111.257812 105.503906 111.269531 C 101.660156 113.285156 99.824219 113.433594 97.265625 113.433594 L 97.109375 113.433594 C 90.136719 113.433594 85.628906 109.386719 85.628906 103.128906 C 85.628906 99.695312 87.390625 96.707031 90.261719 92.121094 Z M 128.148438 181.976562 C 127.351562 182.121094 126.542969 182.183594 125.734375 182.160156 C 119.480469 181.96875 114.566406 176.742188 114.757812 170.488281 L 115.417969 149.042969 C 115.582031 143.664062 117.789062 138.546875 121.585938 134.730469 L 122.761719 133.550781 C 125.914062 130.382812 128.859375 127.011719 131.582031 123.464844 L 141.449219 110.585938 C 143.34375 108.113281 146.847656 107.5625 149.410156 109.335938 C 149.417969 109.339844 149.421875 109.34375 149.429688 109.347656 C 151.9375 111.097656 152.558594 114.550781 150.808594 117.0625 L 141.019531 131.113281 L 145.023438 128.355469 C 152.777344 123.019531 157.355469 114.167969 157.226562 104.757812 L 157.109375 96.160156 C 157.058594 92.582031 159.90625 89.632812 163.484375 89.554688 C 167.085938 89.472656 170.09375 92.273438 170.277344 95.867188 L 170.988281 109.816406 C 171.601562 121.886719 167.589844 133.738281 159.765625 142.953125 L 154.972656 148.605469 C 150.117188 154.324219 146.628906 161.082031 144.78125 168.355469 C 143.066406 175.09375 137.59375 180.222656 130.753906 181.492188 Z M 96.617188 181.976562 L 94.011719 181.492188 C 87.175781 180.222656 81.699219 175.09375 79.988281 168.355469 C 78.136719 161.082031 74.652344 154.324219 69.796875 148.605469 L 65 142.953125 C 57.179688 133.738281 53.167969 121.886719 53.78125 109.816406 L 54.488281 95.867188 C 54.671875 92.273438 57.683594 89.472656 61.28125 89.554688 C 64.863281 89.632812 67.707031 92.582031 67.660156 96.160156 L 67.539062 104.757812 C 67.410156 114.167969 71.988281 123.019531 79.742188 128.355469 L 83.75 131.113281 L 73.960938 117.0625 C 72.210938 114.550781 72.828125 111.097656 75.339844 109.347656 C 75.34375 109.34375 75.351562 109.339844 75.355469 109.335938 C 77.921875 107.5625 81.421875 108.113281 83.316406 110.585938 L 93.1875 123.464844 C 95.90625 127.011719 98.851562 130.382812 102.007812 133.550781 L 103.183594 134.730469 C 106.980469 138.546875 109.183594 143.664062 109.351562 149.042969 L 110.007812 170.488281 C 110.203125 176.742188 105.289062 181.96875 99.03125 182.160156 C 98.222656 182.183594 97.414062 182.121094 96.617188 181.976562 Z M 96.617188 181.976562 " fill-opacity="1" fill-rule="nonzero"></path>
    </g>
</svg>
