<svg width="21" height="20" viewBox="0 0 21 20" fill="none" xmlns="http://www.w3.org/2000/svg">
    <path d="M18.667 6H14.167V1.5C14.167 1.10218 14.009 0.720644 13.7277 0.43934C13.4463 0.158035 13.0648 0 12.667 0H8.16699C7.76917 0 7.38764 0.158035 7.10633 0.43934C6.82503 0.720644 6.66699 1.10218 6.66699 1.5V6H2.16699C1.76917 6 1.38764 6.15804 1.10633 6.43934C0.825027 6.72064 0.666992 7.10218 0.666992 7.5V12C0.666992 12.3978 0.825027 12.7794 1.10633 13.0607C1.38764 13.342 1.76917 13.5 2.16699 13.5H6.66699V18C6.66699 18.3978 6.82503 18.7794 7.10633 19.0607C7.38764 19.342 7.76917 19.5 8.16699 19.5H12.667C13.0648 19.5 13.4463 19.342 13.7277 19.0607C14.009 18.7794 14.167 18.3978 14.167 18V13.5H18.667C19.0648 13.5 19.4463 13.342 19.7277 13.0607C20.009 12.7794 20.167 12.3978 20.167 12V7.5C20.167 7.10218 20.009 6.72064 19.7277 6.43934C19.4463 6.15804 19.0648 6 18.667 6ZM18.667 12H13.417C13.2181 12 13.0273 12.079 12.8867 12.2197C12.746 12.3603 12.667 12.5511 12.667 12.75V18H8.16699V12.75C8.16699 12.5511 8.08797 12.3603 7.94732 12.2197C7.80667 12.079 7.6159 12 7.41699 12H2.16699V7.5H7.41699C7.6159 7.5 7.80667 7.42098 7.94732 7.28033C8.08797 7.13968 8.16699 6.94891 8.16699 6.75V1.5H12.667V6.75C12.667 6.94891 12.746 7.13968 12.8867 7.28033C13.0273 7.42098 13.2181 7.5 13.417 7.5H18.667V12Z" fill="#838383"/>
</svg>
